G75*
%MOIN*%
%OFA0B0*%
%FSLAX25Y25*%
%IPPOS*%
%LPD*%
%AMOC8*
5,1,8,0,0,1.08239X$1,22.5*
%
%ADD10C,0.00000*%
%ADD11OC8,0.05600*%
%ADD12C,0.06700*%
%ADD13OC8,0.06700*%
%ADD14C,0.05550*%
%ADD15C,0.11620*%
%ADD16C,0.07800*%
%ADD17C,0.05600*%
%ADD18C,0.06337*%
D10*
X0003000Y0001800D02*
X0003000Y0198650D01*
X0199850Y0198650D01*
X0199850Y0001800D01*
X0003000Y0001800D01*
D11*
X0033000Y0006800D03*
X0048000Y0006800D03*
X0063000Y0016800D03*
X0063000Y0026800D03*
X0080500Y0009300D03*
X0048000Y0046800D03*
X0033000Y0046800D03*
X0010500Y0046800D03*
X0010500Y0056800D03*
X0120500Y0009300D03*
X0133000Y0016800D03*
X0143000Y0016800D03*
X0143000Y0131800D03*
X0143000Y0141800D03*
X0128000Y0166800D03*
X0138000Y0181800D03*
X0138000Y0191800D03*
X0168000Y0166800D03*
X0103000Y0186800D03*
X0098000Y0194300D03*
X0093000Y0186800D03*
X0073000Y0171800D03*
X0063000Y0171800D03*
D12*
X0115500Y0186800D03*
X0138000Y0071800D03*
D13*
X0148000Y0071800D03*
X0125500Y0186800D03*
D14*
X0153000Y0186800D03*
X0173000Y0186800D03*
X0070874Y0191800D03*
X0063000Y0191800D03*
X0055126Y0191800D03*
X0038079Y0183099D03*
X0033354Y0179950D03*
X0038079Y0176800D03*
X0033354Y0173650D03*
X0038079Y0170501D03*
X0013000Y0031800D03*
X0013000Y0011800D03*
D15*
X0018000Y0162430D03*
X0018000Y0191170D03*
D16*
X0008000Y0136800D03*
X0008000Y0126800D03*
X0008000Y0116800D03*
X0008000Y0106800D03*
X0008000Y0096800D03*
X0008000Y0086800D03*
X0008000Y0076800D03*
X0008000Y0066800D03*
X0063000Y0061800D03*
X0063000Y0051800D03*
X0063000Y0071800D03*
X0193000Y0151800D03*
X0193000Y0161800D03*
X0193000Y0171800D03*
X0193000Y0181800D03*
X0193000Y0191800D03*
X0195500Y0136800D03*
X0195500Y0126800D03*
X0195500Y0116800D03*
X0195500Y0106800D03*
X0195500Y0096800D03*
X0195500Y0086800D03*
X0195500Y0076800D03*
X0195500Y0066800D03*
D17*
X0115600Y0061800D02*
X0110400Y0061800D01*
X0110400Y0051800D02*
X0115600Y0051800D01*
X0115600Y0041800D02*
X0110400Y0041800D01*
X0110400Y0031800D02*
X0115600Y0031800D01*
X0115600Y0021800D02*
X0110400Y0021800D01*
X0085600Y0021800D02*
X0080400Y0021800D01*
X0080400Y0031800D02*
X0085600Y0031800D01*
X0085600Y0041800D02*
X0080400Y0041800D01*
X0080400Y0051800D02*
X0085600Y0051800D01*
X0085600Y0061800D02*
X0080400Y0061800D01*
X0080400Y0071800D02*
X0085600Y0071800D01*
X0085600Y0081800D02*
X0080400Y0081800D01*
X0080400Y0091800D02*
X0085600Y0091800D01*
X0085600Y0101800D02*
X0080400Y0101800D01*
X0080400Y0111800D02*
X0085600Y0111800D01*
X0085600Y0121800D02*
X0080400Y0121800D01*
X0080400Y0131800D02*
X0085600Y0131800D01*
X0085600Y0141800D02*
X0080400Y0141800D01*
X0080400Y0151800D02*
X0085600Y0151800D01*
X0110400Y0151800D02*
X0115600Y0151800D01*
X0115600Y0141800D02*
X0110400Y0141800D01*
X0110400Y0131800D02*
X0115600Y0131800D01*
X0115600Y0121800D02*
X0110400Y0121800D01*
X0110400Y0111800D02*
X0115600Y0111800D01*
X0115600Y0101800D02*
X0110400Y0101800D01*
X0110400Y0091800D02*
X0115600Y0091800D01*
X0115600Y0081800D02*
X0110400Y0081800D01*
X0110400Y0071800D02*
X0115600Y0071800D01*
D18*
X0078748Y0191800D03*
X0047252Y0191800D03*
M02*
