G75*
%MOIN*%
%OFA0B0*%
%FSLAX25Y25*%
%IPPOS*%
%LPD*%
%AMOC8*
5,1,8,0,0,1.08239X$1,22.5*
%
%ADD10C,0.00000*%
%ADD11OC8,0.05200*%
%ADD12C,0.06300*%
%ADD13OC8,0.06300*%
%ADD14C,0.05150*%
%ADD15C,0.11220*%
%ADD16C,0.07400*%
%ADD17C,0.05200*%
%ADD18C,0.05937*%
%ADD19C,0.01600*%
%ADD20R,0.03562X0.03562*%
D10*
X0003000Y0001800D02*
X0003000Y0198650D01*
X0199850Y0198650D01*
X0199850Y0001800D01*
X0003000Y0001800D01*
D11*
X0033000Y0006800D03*
X0048000Y0006800D03*
X0063000Y0016800D03*
X0063000Y0026800D03*
X0080500Y0009300D03*
X0048000Y0046800D03*
X0033000Y0046800D03*
X0010500Y0046800D03*
X0010500Y0056800D03*
X0120500Y0009300D03*
X0133000Y0016800D03*
X0143000Y0016800D03*
X0143000Y0131800D03*
X0143000Y0141800D03*
X0128000Y0166800D03*
X0138000Y0181800D03*
X0138000Y0191800D03*
X0168000Y0166800D03*
X0103000Y0186800D03*
X0098000Y0194300D03*
X0093000Y0186800D03*
X0073000Y0171800D03*
X0063000Y0171800D03*
D12*
X0115500Y0186800D03*
X0138000Y0071800D03*
D13*
X0148000Y0071800D03*
X0125500Y0186800D03*
D14*
X0153000Y0186800D03*
X0173000Y0186800D03*
X0070874Y0191800D03*
X0063000Y0191800D03*
X0055126Y0191800D03*
X0038079Y0183099D03*
X0033354Y0179950D03*
X0038079Y0176800D03*
X0033354Y0173650D03*
X0038079Y0170501D03*
X0013000Y0031800D03*
X0013000Y0011800D03*
D15*
X0018000Y0162430D03*
X0018000Y0191170D03*
D16*
X0008000Y0136800D03*
X0008000Y0126800D03*
X0008000Y0116800D03*
X0008000Y0106800D03*
X0008000Y0096800D03*
X0008000Y0086800D03*
X0008000Y0076800D03*
X0008000Y0066800D03*
X0063000Y0061800D03*
X0063000Y0051800D03*
X0063000Y0071800D03*
X0193000Y0151800D03*
X0193000Y0161800D03*
X0193000Y0171800D03*
X0193000Y0181800D03*
X0193000Y0191800D03*
X0195500Y0136800D03*
X0195500Y0126800D03*
X0195500Y0116800D03*
X0195500Y0106800D03*
X0195500Y0096800D03*
X0195500Y0086800D03*
X0195500Y0076800D03*
X0195500Y0066800D03*
D17*
X0115600Y0061800D02*
X0110400Y0061800D01*
X0110400Y0051800D02*
X0115600Y0051800D01*
X0115600Y0041800D02*
X0110400Y0041800D01*
X0110400Y0031800D02*
X0115600Y0031800D01*
X0115600Y0021800D02*
X0110400Y0021800D01*
X0085600Y0021800D02*
X0080400Y0021800D01*
X0080400Y0031800D02*
X0085600Y0031800D01*
X0085600Y0041800D02*
X0080400Y0041800D01*
X0080400Y0051800D02*
X0085600Y0051800D01*
X0085600Y0061800D02*
X0080400Y0061800D01*
X0080400Y0071800D02*
X0085600Y0071800D01*
X0085600Y0081800D02*
X0080400Y0081800D01*
X0080400Y0091800D02*
X0085600Y0091800D01*
X0085600Y0101800D02*
X0080400Y0101800D01*
X0080400Y0111800D02*
X0085600Y0111800D01*
X0085600Y0121800D02*
X0080400Y0121800D01*
X0080400Y0131800D02*
X0085600Y0131800D01*
X0085600Y0141800D02*
X0080400Y0141800D01*
X0080400Y0151800D02*
X0085600Y0151800D01*
X0110400Y0151800D02*
X0115600Y0151800D01*
X0115600Y0141800D02*
X0110400Y0141800D01*
X0110400Y0131800D02*
X0115600Y0131800D01*
X0115600Y0121800D02*
X0110400Y0121800D01*
X0110400Y0111800D02*
X0115600Y0111800D01*
X0115600Y0101800D02*
X0110400Y0101800D01*
X0110400Y0091800D02*
X0115600Y0091800D01*
X0115600Y0081800D02*
X0110400Y0081800D01*
X0110400Y0071800D02*
X0115600Y0071800D01*
D18*
X0078748Y0191800D03*
X0047252Y0191800D03*
D19*
X0050456Y0188826D02*
X0052479Y0188826D01*
X0052874Y0188430D02*
X0054335Y0187825D01*
X0055917Y0187825D01*
X0057378Y0188430D01*
X0058496Y0189548D01*
X0059063Y0190918D01*
X0059630Y0189548D01*
X0060748Y0188430D01*
X0062209Y0187825D01*
X0063791Y0187825D01*
X0065252Y0188430D01*
X0066370Y0189548D01*
X0066937Y0190918D01*
X0067504Y0189548D01*
X0068622Y0188430D01*
X0070083Y0187825D01*
X0071665Y0187825D01*
X0073126Y0188430D01*
X0074244Y0189548D01*
X0074598Y0190404D01*
X0075045Y0189325D01*
X0076273Y0188097D01*
X0077879Y0187431D01*
X0079617Y0187431D01*
X0081223Y0188097D01*
X0082451Y0189325D01*
X0083117Y0190931D01*
X0083117Y0192669D01*
X0082451Y0194275D01*
X0081223Y0195503D01*
X0079617Y0196168D01*
X0077879Y0196168D01*
X0076273Y0195503D01*
X0075045Y0194275D01*
X0074598Y0193196D01*
X0074244Y0194052D01*
X0073126Y0195170D01*
X0071665Y0195775D01*
X0070083Y0195775D01*
X0068622Y0195170D01*
X0067504Y0194052D01*
X0066937Y0192682D01*
X0066370Y0194052D01*
X0065252Y0195170D01*
X0063791Y0195775D01*
X0062209Y0195775D01*
X0060748Y0195170D01*
X0059630Y0194052D01*
X0059063Y0192682D01*
X0058496Y0194052D01*
X0057378Y0195170D01*
X0055917Y0195775D01*
X0054335Y0195775D01*
X0052874Y0195170D01*
X0051756Y0194052D01*
X0051402Y0193196D01*
X0050955Y0194275D01*
X0049727Y0195503D01*
X0048121Y0196168D01*
X0046383Y0196168D01*
X0044777Y0195503D01*
X0043549Y0194275D01*
X0042883Y0192669D01*
X0042883Y0190931D01*
X0043549Y0189325D01*
X0044777Y0188097D01*
X0046383Y0187431D01*
X0048121Y0187431D01*
X0049727Y0188097D01*
X0050955Y0189325D01*
X0051402Y0190404D01*
X0051756Y0189548D01*
X0052874Y0188430D01*
X0051578Y0193621D02*
X0051226Y0193621D01*
X0050010Y0195220D02*
X0052996Y0195220D01*
X0057256Y0195220D02*
X0060870Y0195220D01*
X0059452Y0193621D02*
X0058674Y0193621D01*
X0058858Y0190424D02*
X0059268Y0190424D01*
X0060353Y0188826D02*
X0057773Y0188826D01*
X0065130Y0195220D02*
X0068744Y0195220D01*
X0067326Y0193621D02*
X0066548Y0193621D01*
X0066732Y0190424D02*
X0067142Y0190424D01*
X0068227Y0188826D02*
X0065647Y0188826D01*
X0073521Y0188826D02*
X0075544Y0188826D01*
X0074774Y0193621D02*
X0074422Y0193621D01*
X0073004Y0195220D02*
X0075990Y0195220D01*
X0081506Y0195220D02*
X0094000Y0195220D01*
X0094000Y0195957D02*
X0094000Y0192643D01*
X0096343Y0190300D01*
X0099657Y0190300D01*
X0102000Y0192643D01*
X0102000Y0195957D01*
X0101106Y0196850D01*
X0191866Y0196850D01*
X0190111Y0196124D01*
X0188676Y0194689D01*
X0187900Y0192814D01*
X0187900Y0190786D01*
X0188185Y0190097D01*
X0168889Y0170800D01*
X0167111Y0170800D01*
X0155200Y0182711D01*
X0155200Y0183409D01*
X0155252Y0183430D01*
X0156370Y0184548D01*
X0156975Y0186009D01*
X0156975Y0187591D01*
X0156370Y0189052D01*
X0155252Y0190170D01*
X0153791Y0190775D01*
X0152209Y0190775D01*
X0150748Y0190170D01*
X0149630Y0189052D01*
X0149025Y0187591D01*
X0149025Y0186009D01*
X0149047Y0185958D01*
X0142089Y0179000D01*
X0140857Y0179000D01*
X0142000Y0180143D01*
X0142000Y0183457D01*
X0139657Y0185800D01*
X0136343Y0185800D01*
X0134000Y0183457D01*
X0134000Y0180143D01*
X0135143Y0179000D01*
X0097089Y0179000D01*
X0095800Y0177711D01*
X0080800Y0162711D01*
X0080800Y0155800D01*
X0079604Y0155800D01*
X0078134Y0155191D01*
X0077009Y0154066D01*
X0076400Y0152596D01*
X0076400Y0151004D01*
X0077009Y0149534D01*
X0078134Y0148409D01*
X0079604Y0147800D01*
X0086396Y0147800D01*
X0087866Y0148409D01*
X0088991Y0149534D01*
X0089600Y0151004D01*
X0089600Y0152596D01*
X0088991Y0154066D01*
X0087866Y0155191D01*
X0086396Y0155800D01*
X0085200Y0155800D01*
X0085200Y0160889D01*
X0098911Y0174600D01*
X0143911Y0174600D01*
X0145200Y0175889D01*
X0150800Y0181489D01*
X0150800Y0180889D01*
X0164000Y0167689D01*
X0164000Y0165143D01*
X0166343Y0162800D01*
X0169657Y0162800D01*
X0172000Y0165143D01*
X0172000Y0167689D01*
X0188448Y0184136D01*
X0187900Y0182814D01*
X0187900Y0180786D01*
X0188676Y0178911D01*
X0190111Y0177476D01*
X0191237Y0177010D01*
X0190889Y0176897D01*
X0190117Y0176504D01*
X0189417Y0175995D01*
X0188805Y0175383D01*
X0188296Y0174683D01*
X0187903Y0173911D01*
X0187635Y0173088D01*
X0187500Y0172233D01*
X0187500Y0172000D01*
X0192800Y0172000D01*
X0192800Y0171600D01*
X0187500Y0171600D01*
X0187500Y0171367D01*
X0187635Y0170512D01*
X0187903Y0169689D01*
X0188296Y0168917D01*
X0188805Y0168217D01*
X0189417Y0167605D01*
X0190117Y0167096D01*
X0190889Y0166703D01*
X0191237Y0166590D01*
X0190111Y0166124D01*
X0188676Y0164689D01*
X0187900Y0162814D01*
X0187900Y0160786D01*
X0188676Y0158911D01*
X0190111Y0157476D01*
X0191744Y0156800D01*
X0190111Y0156124D01*
X0188676Y0154689D01*
X0187900Y0152814D01*
X0187900Y0150786D01*
X0188676Y0148911D01*
X0190111Y0147476D01*
X0191986Y0146700D01*
X0194014Y0146700D01*
X0195889Y0147476D01*
X0197324Y0148911D01*
X0198050Y0150666D01*
X0198050Y0141264D01*
X0196514Y0141900D01*
X0194486Y0141900D01*
X0192611Y0141124D01*
X0191176Y0139689D01*
X0190400Y0137814D01*
X0190400Y0135786D01*
X0191176Y0133911D01*
X0192611Y0132476D01*
X0194244Y0131800D01*
X0192611Y0131124D01*
X0191176Y0129689D01*
X0190400Y0127814D01*
X0190400Y0125786D01*
X0191176Y0123911D01*
X0192611Y0122476D01*
X0194244Y0121800D01*
X0192611Y0121124D01*
X0191176Y0119689D01*
X0190400Y0117814D01*
X0190400Y0115786D01*
X0191176Y0113911D01*
X0192611Y0112476D01*
X0194244Y0111800D01*
X0192611Y0111124D01*
X0191176Y0109689D01*
X0190400Y0107814D01*
X0190400Y0105786D01*
X0191176Y0103911D01*
X0192611Y0102476D01*
X0194244Y0101800D01*
X0192611Y0101124D01*
X0191176Y0099689D01*
X0190400Y0097814D01*
X0190400Y0095786D01*
X0191176Y0093911D01*
X0192611Y0092476D01*
X0194244Y0091800D01*
X0192611Y0091124D01*
X0191176Y0089689D01*
X0190400Y0087814D01*
X0190400Y0085786D01*
X0191176Y0083911D01*
X0192611Y0082476D01*
X0194244Y0081800D01*
X0192611Y0081124D01*
X0191670Y0080182D01*
X0161653Y0088759D01*
X0161411Y0089000D01*
X0160808Y0089000D01*
X0160228Y0089166D01*
X0159930Y0089000D01*
X0143911Y0089000D01*
X0140131Y0092780D01*
X0135252Y0156212D01*
X0135336Y0156338D01*
X0135183Y0157101D01*
X0135124Y0157877D01*
X0135008Y0157976D01*
X0134979Y0158125D01*
X0134331Y0158557D01*
X0133740Y0159063D01*
X0133588Y0159052D01*
X0127966Y0162800D01*
X0129657Y0162800D01*
X0132000Y0165143D01*
X0132000Y0168457D01*
X0129657Y0170800D01*
X0126343Y0170800D01*
X0124000Y0168457D01*
X0124000Y0165444D01*
X0119402Y0168510D01*
X0118911Y0169000D01*
X0118666Y0169000D01*
X0118462Y0169136D01*
X0117782Y0169000D01*
X0106181Y0169000D01*
X0106181Y0169161D01*
X0105361Y0169981D01*
X0100639Y0169981D01*
X0099819Y0169161D01*
X0099819Y0164439D01*
X0100639Y0163619D01*
X0105361Y0163619D01*
X0106181Y0164439D01*
X0106181Y0164600D01*
X0117334Y0164600D01*
X0130889Y0155564D01*
X0135800Y0091715D01*
X0135800Y0090889D01*
X0135869Y0090820D01*
X0135876Y0090723D01*
X0136504Y0090185D01*
X0140800Y0085889D01*
X0142089Y0084600D01*
X0160192Y0084600D01*
X0190400Y0075969D01*
X0190400Y0075786D01*
X0191176Y0073911D01*
X0192611Y0072476D01*
X0193737Y0072010D01*
X0193389Y0071897D01*
X0192617Y0071504D01*
X0191917Y0070995D01*
X0191305Y0070383D01*
X0190796Y0069683D01*
X0190403Y0068911D01*
X0190135Y0068088D01*
X0190000Y0067233D01*
X0190000Y0067000D01*
X0195300Y0067000D01*
X0195300Y0066600D01*
X0195700Y0066600D01*
X0195700Y0061300D01*
X0195933Y0061300D01*
X0196788Y0061435D01*
X0197611Y0061703D01*
X0198050Y0061927D01*
X0198050Y0003600D01*
X0051023Y0003600D01*
X0052400Y0004977D01*
X0052400Y0006800D01*
X0052400Y0008623D01*
X0049823Y0011200D01*
X0048000Y0011200D01*
X0048000Y0006800D01*
X0048000Y0006800D01*
X0052400Y0006800D01*
X0048000Y0006800D01*
X0048000Y0006800D01*
X0048000Y0006800D01*
X0043600Y0006800D01*
X0043600Y0008623D01*
X0046177Y0011200D01*
X0048000Y0011200D01*
X0048000Y0006800D01*
X0043600Y0006800D01*
X0043600Y0004977D01*
X0044977Y0003600D01*
X0035457Y0003600D01*
X0037000Y0005143D01*
X0037000Y0008457D01*
X0034657Y0010800D01*
X0031343Y0010800D01*
X0029000Y0008457D01*
X0029000Y0005143D01*
X0030543Y0003600D01*
X0004800Y0003600D01*
X0004800Y0062327D01*
X0005117Y0062096D01*
X0005889Y0061703D01*
X0006712Y0061435D01*
X0007567Y0061300D01*
X0007800Y0061300D01*
X0007800Y0066600D01*
X0008200Y0066600D01*
X0008200Y0067000D01*
X0013500Y0067000D01*
X0013500Y0067233D01*
X0013365Y0068088D01*
X0013097Y0068911D01*
X0012704Y0069683D01*
X0012195Y0070383D01*
X0011583Y0070995D01*
X0010883Y0071504D01*
X0010111Y0071897D01*
X0009763Y0072010D01*
X0010889Y0072476D01*
X0012324Y0073911D01*
X0012609Y0074600D01*
X0037089Y0074600D01*
X0040800Y0070889D01*
X0040800Y0057711D01*
X0033889Y0050800D01*
X0031343Y0050800D01*
X0029000Y0048457D01*
X0029000Y0045143D01*
X0031343Y0042800D01*
X0034657Y0042800D01*
X0037000Y0045143D01*
X0037000Y0047689D01*
X0045200Y0055889D01*
X0045200Y0069600D01*
X0048911Y0069600D01*
X0063911Y0084600D01*
X0076996Y0084600D01*
X0076637Y0084106D01*
X0076322Y0083489D01*
X0076108Y0082830D01*
X0076000Y0082146D01*
X0076000Y0081800D01*
X0083000Y0081800D01*
X0090000Y0081800D01*
X0090000Y0082146D01*
X0089892Y0082830D01*
X0089678Y0083489D01*
X0089363Y0084106D01*
X0089004Y0084600D01*
X0098911Y0084600D01*
X0106400Y0092089D01*
X0106400Y0091004D01*
X0107009Y0089534D01*
X0108134Y0088409D01*
X0109604Y0087800D01*
X0116396Y0087800D01*
X0117866Y0088409D01*
X0118991Y0089534D01*
X0119600Y0091004D01*
X0119600Y0092596D01*
X0118991Y0094066D01*
X0117866Y0095191D01*
X0116396Y0095800D01*
X0110111Y0095800D01*
X0112111Y0097800D01*
X0116396Y0097800D01*
X0117866Y0098409D01*
X0118991Y0099534D01*
X0119600Y0101004D01*
X0119600Y0102596D01*
X0118991Y0104066D01*
X0118684Y0104373D01*
X0123911Y0109600D01*
X0125200Y0110889D01*
X0125200Y0148619D01*
X0125361Y0148619D01*
X0126181Y0149439D01*
X0126181Y0154161D01*
X0125361Y0154981D01*
X0120639Y0154981D01*
X0119819Y0154161D01*
X0119819Y0149439D01*
X0120639Y0148619D01*
X0120800Y0148619D01*
X0120800Y0112711D01*
X0119600Y0111511D01*
X0119600Y0112596D01*
X0118991Y0114066D01*
X0117866Y0115191D01*
X0116396Y0115800D01*
X0109604Y0115800D01*
X0108134Y0115191D01*
X0107009Y0114066D01*
X0106400Y0112596D01*
X0106400Y0111004D01*
X0107009Y0109534D01*
X0108134Y0108409D01*
X0109604Y0107800D01*
X0115889Y0107800D01*
X0113889Y0105800D01*
X0109604Y0105800D01*
X0108134Y0105191D01*
X0107009Y0104066D01*
X0106400Y0102596D01*
X0106400Y0101004D01*
X0107009Y0099534D01*
X0107316Y0099227D01*
X0097089Y0089000D01*
X0088457Y0089000D01*
X0088991Y0089534D01*
X0089600Y0091004D01*
X0089600Y0092596D01*
X0088991Y0094066D01*
X0087866Y0095191D01*
X0086396Y0095800D01*
X0079604Y0095800D01*
X0078134Y0095191D01*
X0077009Y0094066D01*
X0076400Y0092596D01*
X0076400Y0091004D01*
X0077009Y0089534D01*
X0077543Y0089000D01*
X0062089Y0089000D01*
X0060800Y0087711D01*
X0047089Y0074000D01*
X0043911Y0074000D01*
X0038911Y0079000D01*
X0012609Y0079000D01*
X0012324Y0079689D01*
X0010889Y0081124D01*
X0009256Y0081800D01*
X0010889Y0082476D01*
X0012324Y0083911D01*
X0013100Y0085786D01*
X0013100Y0087814D01*
X0012324Y0089689D01*
X0010889Y0091124D01*
X0009256Y0091800D01*
X0010889Y0092476D01*
X0012324Y0093911D01*
X0013100Y0095786D01*
X0013100Y0097814D01*
X0012324Y0099689D01*
X0010889Y0101124D01*
X0009256Y0101800D01*
X0010889Y0102476D01*
X0012324Y0103911D01*
X0013100Y0105786D01*
X0013100Y0107814D01*
X0012324Y0109689D01*
X0010889Y0111124D01*
X0009256Y0111800D01*
X0010889Y0112476D01*
X0012324Y0113911D01*
X0013100Y0115786D01*
X0013100Y0117814D01*
X0012324Y0119689D01*
X0010889Y0121124D01*
X0009256Y0121800D01*
X0010889Y0122476D01*
X0012324Y0123911D01*
X0013100Y0125786D01*
X0013100Y0127814D01*
X0012324Y0129689D01*
X0010889Y0131124D01*
X0009256Y0131800D01*
X0010889Y0132476D01*
X0012324Y0133911D01*
X0013100Y0135786D01*
X0013100Y0137814D01*
X0012324Y0139689D01*
X0010889Y0141124D01*
X0009014Y0141900D01*
X0006986Y0141900D01*
X0005111Y0141124D01*
X0004800Y0140812D01*
X0004800Y0196850D01*
X0013766Y0196850D01*
X0012057Y0195141D01*
X0010990Y0192564D01*
X0010990Y0189776D01*
X0012057Y0187199D01*
X0014029Y0185227D01*
X0016606Y0184160D01*
X0019394Y0184160D01*
X0021971Y0185227D01*
X0023943Y0187199D01*
X0025010Y0189776D01*
X0025010Y0192564D01*
X0023943Y0195141D01*
X0022234Y0196850D01*
X0094894Y0196850D01*
X0094000Y0195957D01*
X0094862Y0196818D02*
X0022266Y0196818D01*
X0023864Y0195220D02*
X0044494Y0195220D01*
X0043278Y0193621D02*
X0024572Y0193621D01*
X0025010Y0192023D02*
X0042883Y0192023D01*
X0043093Y0190424D02*
X0025010Y0190424D01*
X0024617Y0188826D02*
X0044048Y0188826D01*
X0041170Y0185629D02*
X0088600Y0185629D01*
X0088600Y0184977D02*
X0091177Y0182400D01*
X0093000Y0182400D01*
X0094823Y0182400D01*
X0097400Y0184977D01*
X0097400Y0186800D01*
X0097400Y0188623D01*
X0094823Y0191200D01*
X0093000Y0191200D01*
X0093000Y0186800D01*
X0097400Y0186800D01*
X0093000Y0186800D01*
X0093000Y0186800D01*
X0093000Y0186800D01*
X0093000Y0182400D01*
X0093000Y0186800D01*
X0093000Y0186800D01*
X0093000Y0186800D01*
X0088600Y0186800D01*
X0088600Y0188623D01*
X0091177Y0191200D01*
X0093000Y0191200D01*
X0093000Y0186800D01*
X0088600Y0186800D01*
X0088600Y0184977D01*
X0089547Y0184030D02*
X0041995Y0184030D01*
X0042054Y0183890D02*
X0041448Y0185351D01*
X0040330Y0186469D01*
X0038869Y0187074D01*
X0037288Y0187074D01*
X0035827Y0186469D01*
X0034709Y0185351D01*
X0034118Y0183924D01*
X0032564Y0183924D01*
X0032512Y0183903D01*
X0032415Y0184000D01*
X0027089Y0184000D01*
X0025800Y0182711D01*
X0020800Y0177711D01*
X0020800Y0170889D01*
X0025800Y0165889D01*
X0025800Y0150889D01*
X0027089Y0149600D01*
X0032089Y0144600D01*
X0038911Y0144600D01*
X0040200Y0145889D01*
X0057930Y0163619D01*
X0060361Y0163619D01*
X0061181Y0164439D01*
X0061181Y0167962D01*
X0061343Y0167800D01*
X0064657Y0167800D01*
X0067000Y0170143D01*
X0067000Y0173457D01*
X0064657Y0175800D01*
X0061343Y0175800D01*
X0059000Y0173457D01*
X0059000Y0170143D01*
X0059162Y0169981D01*
X0055639Y0169981D01*
X0054819Y0169161D01*
X0054819Y0166730D01*
X0037089Y0149000D01*
X0033911Y0149000D01*
X0030200Y0152711D01*
X0030200Y0167711D01*
X0025200Y0172711D01*
X0025200Y0175889D01*
X0028911Y0179600D01*
X0029380Y0179600D01*
X0029380Y0179159D01*
X0029985Y0177698D01*
X0030883Y0176800D01*
X0029985Y0175902D01*
X0029380Y0174441D01*
X0029380Y0172860D01*
X0029985Y0171399D01*
X0031103Y0170281D01*
X0032564Y0169676D01*
X0033780Y0169676D01*
X0033812Y0169476D01*
X0034024Y0168821D01*
X0034337Y0168208D01*
X0034742Y0167651D01*
X0035229Y0167164D01*
X0035786Y0166759D01*
X0036399Y0166446D01*
X0037054Y0166234D01*
X0037734Y0166126D01*
X0038079Y0166126D01*
X0038423Y0166126D01*
X0039103Y0166234D01*
X0039758Y0166446D01*
X0040372Y0166759D01*
X0040929Y0167164D01*
X0041416Y0167651D01*
X0041820Y0168208D01*
X0042133Y0168821D01*
X0042346Y0169476D01*
X0042454Y0170156D01*
X0042454Y0170501D01*
X0042454Y0170845D01*
X0042346Y0171525D01*
X0042133Y0172180D01*
X0041820Y0172794D01*
X0041416Y0173351D01*
X0040929Y0173838D01*
X0040818Y0173918D01*
X0041448Y0174548D01*
X0042054Y0176009D01*
X0042054Y0177591D01*
X0041448Y0179052D01*
X0040550Y0179950D01*
X0041448Y0180848D01*
X0042054Y0182309D01*
X0042054Y0183890D01*
X0042054Y0182432D02*
X0091146Y0182432D01*
X0093000Y0182432D02*
X0093000Y0182432D01*
X0093000Y0184030D02*
X0093000Y0184030D01*
X0093000Y0185629D02*
X0093000Y0185629D01*
X0093000Y0187227D02*
X0093000Y0187227D01*
X0093000Y0188826D02*
X0093000Y0188826D01*
X0093000Y0190424D02*
X0093000Y0190424D01*
X0094620Y0192023D02*
X0083117Y0192023D01*
X0082907Y0190424D02*
X0090402Y0190424D01*
X0088803Y0188826D02*
X0081952Y0188826D01*
X0082722Y0193621D02*
X0094000Y0193621D01*
X0095598Y0190424D02*
X0096219Y0190424D01*
X0097197Y0188826D02*
X0099369Y0188826D01*
X0099000Y0188457D02*
X0099000Y0185143D01*
X0101343Y0182800D01*
X0104657Y0182800D01*
X0107000Y0185143D01*
X0107000Y0188457D01*
X0104657Y0190800D01*
X0101343Y0190800D01*
X0099000Y0188457D01*
X0099000Y0187227D02*
X0097400Y0187227D01*
X0097400Y0185629D02*
X0099000Y0185629D01*
X0100113Y0184030D02*
X0096453Y0184030D01*
X0094854Y0182432D02*
X0114156Y0182432D01*
X0114595Y0182250D02*
X0116405Y0182250D01*
X0118077Y0182943D01*
X0119357Y0184223D01*
X0120050Y0185895D01*
X0120050Y0187705D01*
X0119357Y0189377D01*
X0118077Y0190657D01*
X0116405Y0191350D01*
X0114595Y0191350D01*
X0112923Y0190657D01*
X0111643Y0189377D01*
X0110950Y0187705D01*
X0110950Y0185895D01*
X0111643Y0184223D01*
X0112923Y0182943D01*
X0114595Y0182250D01*
X0111835Y0184030D02*
X0105887Y0184030D01*
X0107000Y0185629D02*
X0111060Y0185629D01*
X0110950Y0187227D02*
X0107000Y0187227D01*
X0106631Y0188826D02*
X0111414Y0188826D01*
X0112690Y0190424D02*
X0105032Y0190424D01*
X0101380Y0192023D02*
X0133600Y0192023D01*
X0133600Y0191800D02*
X0138000Y0191800D01*
X0138000Y0191800D01*
X0138000Y0196200D01*
X0139823Y0196200D01*
X0142400Y0193623D01*
X0142400Y0191800D01*
X0138000Y0191800D01*
X0138000Y0191800D01*
X0138000Y0191800D01*
X0138000Y0196200D01*
X0136177Y0196200D01*
X0133600Y0193623D01*
X0133600Y0191800D01*
X0133600Y0189977D01*
X0136177Y0187400D01*
X0138000Y0187400D01*
X0139823Y0187400D01*
X0142400Y0189977D01*
X0142400Y0191800D01*
X0138000Y0191800D01*
X0138000Y0187400D01*
X0138000Y0191800D01*
X0138000Y0191800D01*
X0133600Y0191800D01*
X0133600Y0190424D02*
X0128876Y0190424D01*
X0127550Y0191750D02*
X0125500Y0191750D01*
X0125500Y0186800D01*
X0130450Y0186800D01*
X0130450Y0188850D01*
X0127550Y0191750D01*
X0125500Y0191750D02*
X0123450Y0191750D01*
X0120550Y0188850D01*
X0120550Y0186800D01*
X0125500Y0186800D01*
X0125500Y0186800D01*
X0125500Y0186800D01*
X0130450Y0186800D01*
X0130450Y0184750D01*
X0127550Y0181850D01*
X0125500Y0181850D01*
X0125500Y0186800D01*
X0125500Y0186800D01*
X0125500Y0186800D01*
X0125500Y0191750D01*
X0125500Y0190424D02*
X0125500Y0190424D01*
X0125500Y0188826D02*
X0125500Y0188826D01*
X0125500Y0187227D02*
X0125500Y0187227D01*
X0125500Y0186800D02*
X0120550Y0186800D01*
X0120550Y0184750D01*
X0123450Y0181850D01*
X0125500Y0181850D01*
X0125500Y0186800D01*
X0125500Y0185629D02*
X0125500Y0185629D01*
X0125500Y0184030D02*
X0125500Y0184030D01*
X0125500Y0182432D02*
X0125500Y0182432D01*
X0128132Y0182432D02*
X0134000Y0182432D01*
X0134000Y0180833D02*
X0041434Y0180833D01*
X0041265Y0179235D02*
X0134908Y0179235D01*
X0134573Y0184030D02*
X0129731Y0184030D01*
X0130450Y0185629D02*
X0136172Y0185629D01*
X0134752Y0188826D02*
X0130450Y0188826D01*
X0130450Y0187227D02*
X0149025Y0187227D01*
X0148718Y0185629D02*
X0139828Y0185629D01*
X0141427Y0184030D02*
X0147119Y0184030D01*
X0145521Y0182432D02*
X0142000Y0182432D01*
X0142000Y0180833D02*
X0143922Y0180833D01*
X0142323Y0179235D02*
X0141092Y0179235D01*
X0143000Y0176800D02*
X0098000Y0176800D01*
X0083000Y0161800D01*
X0083000Y0151800D01*
X0078294Y0155257D02*
X0049568Y0155257D01*
X0047970Y0153659D02*
X0076840Y0153659D01*
X0076400Y0152060D02*
X0046371Y0152060D01*
X0044773Y0150462D02*
X0076625Y0150462D01*
X0077680Y0148863D02*
X0043174Y0148863D01*
X0041576Y0147265D02*
X0095353Y0147265D01*
X0095800Y0147711D02*
X0090800Y0142711D01*
X0090800Y0127711D01*
X0088073Y0124984D01*
X0087866Y0125191D01*
X0086396Y0125800D01*
X0079604Y0125800D01*
X0078134Y0125191D01*
X0077009Y0124066D01*
X0076400Y0122596D01*
X0076400Y0121004D01*
X0077009Y0119534D01*
X0078134Y0118409D01*
X0079604Y0117800D01*
X0086396Y0117800D01*
X0087866Y0118409D01*
X0088991Y0119534D01*
X0089094Y0119783D01*
X0093911Y0124600D01*
X0095200Y0125889D01*
X0095200Y0140889D01*
X0098911Y0144600D01*
X0099819Y0144600D01*
X0099819Y0144439D01*
X0100639Y0143619D01*
X0105361Y0143619D01*
X0106181Y0144439D01*
X0106181Y0149161D01*
X0105361Y0149981D01*
X0100639Y0149981D01*
X0099819Y0149161D01*
X0099819Y0149000D01*
X0097089Y0149000D01*
X0095800Y0147711D01*
X0096952Y0148863D02*
X0088320Y0148863D01*
X0089375Y0150462D02*
X0106625Y0150462D01*
X0106400Y0151004D02*
X0106400Y0152596D01*
X0107009Y0154066D01*
X0108134Y0155191D01*
X0109604Y0155800D01*
X0116396Y0155800D01*
X0117866Y0155191D01*
X0118991Y0154066D01*
X0119600Y0152596D01*
X0119600Y0151004D01*
X0118991Y0149534D01*
X0117866Y0148409D01*
X0116396Y0147800D01*
X0109604Y0147800D01*
X0108134Y0148409D01*
X0107009Y0149534D01*
X0106400Y0151004D01*
X0106400Y0152060D02*
X0089600Y0152060D01*
X0089160Y0153659D02*
X0106840Y0153659D01*
X0108294Y0155257D02*
X0087706Y0155257D01*
X0085200Y0156856D02*
X0128950Y0156856D01*
X0130912Y0155257D02*
X0117706Y0155257D01*
X0119160Y0153659D02*
X0119819Y0153659D01*
X0119819Y0152060D02*
X0119600Y0152060D01*
X0119819Y0150462D02*
X0119375Y0150462D01*
X0120395Y0148863D02*
X0118320Y0148863D01*
X0120800Y0147265D02*
X0106181Y0147265D01*
X0106181Y0148863D02*
X0107680Y0148863D01*
X0109370Y0146092D02*
X0110054Y0146200D01*
X0113000Y0146200D01*
X0113000Y0141800D01*
X0113000Y0141800D01*
X0120000Y0141800D01*
X0120000Y0142146D01*
X0119892Y0142830D01*
X0119678Y0143489D01*
X0119363Y0144106D01*
X0118956Y0144666D01*
X0118466Y0145156D01*
X0117906Y0145563D01*
X0117289Y0145878D01*
X0116630Y0146092D01*
X0115946Y0146200D01*
X0113000Y0146200D01*
X0113000Y0141800D01*
X0113000Y0141800D01*
X0113000Y0137400D01*
X0115946Y0137400D01*
X0116630Y0137508D01*
X0117289Y0137722D01*
X0117906Y0138037D01*
X0118466Y0138444D01*
X0118956Y0138934D01*
X0119363Y0139494D01*
X0119678Y0140111D01*
X0119892Y0140770D01*
X0120000Y0141454D01*
X0120000Y0141800D01*
X0113000Y0141800D01*
X0113000Y0141800D01*
X0113000Y0141800D01*
X0106000Y0141800D01*
X0106000Y0142146D01*
X0106108Y0142830D01*
X0106322Y0143489D01*
X0106637Y0144106D01*
X0107044Y0144666D01*
X0107534Y0145156D01*
X0108094Y0145563D01*
X0108711Y0145878D01*
X0109370Y0146092D01*
X0108296Y0145666D02*
X0106181Y0145666D01*
X0105810Y0144068D02*
X0106617Y0144068D01*
X0106051Y0142469D02*
X0096780Y0142469D01*
X0095200Y0140870D02*
X0106092Y0140870D01*
X0106108Y0140770D02*
X0106322Y0140111D01*
X0106637Y0139494D01*
X0107044Y0138934D01*
X0107534Y0138444D01*
X0108094Y0138037D01*
X0108711Y0137722D01*
X0109370Y0137508D01*
X0110054Y0137400D01*
X0113000Y0137400D01*
X0113000Y0141800D01*
X0106000Y0141800D01*
X0106000Y0141454D01*
X0106108Y0140770D01*
X0105361Y0139981D02*
X0100639Y0139981D01*
X0099819Y0139161D01*
X0099819Y0136730D01*
X0095800Y0132711D01*
X0095800Y0122711D01*
X0088073Y0114984D01*
X0087866Y0115191D01*
X0086396Y0115800D01*
X0079604Y0115800D01*
X0078134Y0115191D01*
X0077009Y0114066D01*
X0076400Y0112596D01*
X0076400Y0111004D01*
X0077009Y0109534D01*
X0078134Y0108409D01*
X0079604Y0107800D01*
X0086396Y0107800D01*
X0087866Y0108409D01*
X0088991Y0109534D01*
X0089094Y0109783D01*
X0098911Y0119600D01*
X0100200Y0120889D01*
X0100200Y0130889D01*
X0102930Y0133619D01*
X0105361Y0133619D01*
X0106181Y0134439D01*
X0106181Y0139161D01*
X0105361Y0139981D01*
X0106070Y0139272D02*
X0106798Y0139272D01*
X0106181Y0137673D02*
X0108861Y0137673D01*
X0109604Y0135800D02*
X0108134Y0135191D01*
X0107009Y0134066D01*
X0106400Y0132596D01*
X0106400Y0131004D01*
X0107009Y0129534D01*
X0108134Y0128409D01*
X0109604Y0127800D01*
X0116396Y0127800D01*
X0117866Y0128409D01*
X0118991Y0129534D01*
X0119600Y0131004D01*
X0119600Y0132596D01*
X0118991Y0134066D01*
X0117866Y0135191D01*
X0116396Y0135800D01*
X0109604Y0135800D01*
X0107420Y0134476D02*
X0106181Y0134476D01*
X0106181Y0136075D02*
X0120800Y0136075D01*
X0120800Y0137673D02*
X0117139Y0137673D01*
X0119202Y0139272D02*
X0120800Y0139272D01*
X0120800Y0140870D02*
X0119908Y0140870D01*
X0119949Y0142469D02*
X0120800Y0142469D01*
X0120800Y0144068D02*
X0119383Y0144068D01*
X0120800Y0145666D02*
X0117704Y0145666D01*
X0113000Y0145666D02*
X0113000Y0145666D01*
X0113000Y0144068D02*
X0113000Y0144068D01*
X0113000Y0142469D02*
X0113000Y0142469D01*
X0113000Y0140870D02*
X0113000Y0140870D01*
X0113000Y0139272D02*
X0113000Y0139272D01*
X0113000Y0137673D02*
X0113000Y0137673D01*
X0118580Y0134476D02*
X0120800Y0134476D01*
X0120800Y0132878D02*
X0119483Y0132878D01*
X0119600Y0131279D02*
X0120800Y0131279D01*
X0120800Y0129681D02*
X0119052Y0129681D01*
X0120800Y0128082D02*
X0117077Y0128082D01*
X0116396Y0125800D02*
X0117866Y0125191D01*
X0118991Y0124066D01*
X0119600Y0122596D01*
X0119600Y0121004D01*
X0118991Y0119534D01*
X0117866Y0118409D01*
X0116396Y0117800D01*
X0109604Y0117800D01*
X0108134Y0118409D01*
X0107009Y0119534D01*
X0106400Y0121004D01*
X0106400Y0122596D01*
X0107009Y0124066D01*
X0108134Y0125191D01*
X0109604Y0125800D01*
X0116396Y0125800D01*
X0118171Y0124885D02*
X0120800Y0124885D01*
X0120800Y0123287D02*
X0119314Y0123287D01*
X0119600Y0121688D02*
X0120800Y0121688D01*
X0120800Y0120090D02*
X0119221Y0120090D01*
X0117948Y0118491D02*
X0120800Y0118491D01*
X0120800Y0116893D02*
X0096204Y0116893D01*
X0097803Y0118491D02*
X0108052Y0118491D01*
X0106779Y0120090D02*
X0099401Y0120090D01*
X0100200Y0121688D02*
X0106400Y0121688D01*
X0106686Y0123287D02*
X0100200Y0123287D01*
X0100200Y0124885D02*
X0107829Y0124885D01*
X0108923Y0128082D02*
X0100200Y0128082D01*
X0100200Y0126484D02*
X0120800Y0126484D01*
X0125200Y0126484D02*
X0133126Y0126484D01*
X0133003Y0128082D02*
X0125200Y0128082D01*
X0125200Y0129681D02*
X0132880Y0129681D01*
X0132757Y0131279D02*
X0125200Y0131279D01*
X0125200Y0132878D02*
X0132634Y0132878D01*
X0132511Y0134476D02*
X0125200Y0134476D01*
X0125200Y0136075D02*
X0132388Y0136075D01*
X0132265Y0137673D02*
X0125200Y0137673D01*
X0125200Y0139272D02*
X0132142Y0139272D01*
X0132019Y0140870D02*
X0125200Y0140870D01*
X0125200Y0142469D02*
X0131896Y0142469D01*
X0131773Y0144068D02*
X0125200Y0144068D01*
X0125200Y0145666D02*
X0131650Y0145666D01*
X0131527Y0147265D02*
X0125200Y0147265D01*
X0125605Y0148863D02*
X0131404Y0148863D01*
X0131281Y0150462D02*
X0126181Y0150462D01*
X0126181Y0152060D02*
X0131158Y0152060D01*
X0131035Y0153659D02*
X0126181Y0153659D01*
X0123000Y0151800D02*
X0123000Y0111800D01*
X0113000Y0101800D01*
X0098000Y0086800D01*
X0063000Y0086800D01*
X0048000Y0071800D01*
X0043000Y0071800D01*
X0043000Y0056800D01*
X0033000Y0046800D01*
X0036817Y0044960D02*
X0044183Y0044960D01*
X0044000Y0045143D02*
X0045800Y0043343D01*
X0045800Y0042711D01*
X0037089Y0034000D01*
X0033911Y0034000D01*
X0018911Y0049000D01*
X0013957Y0049000D01*
X0012157Y0050800D01*
X0008843Y0050800D01*
X0006500Y0048457D01*
X0006500Y0045143D01*
X0008843Y0042800D01*
X0012157Y0042800D01*
X0013957Y0044600D01*
X0017089Y0044600D01*
X0030800Y0030889D01*
X0032089Y0029600D01*
X0038911Y0029600D01*
X0048911Y0039600D01*
X0050200Y0040889D01*
X0050200Y0043343D01*
X0052000Y0045143D01*
X0052000Y0048457D01*
X0049657Y0050800D01*
X0046343Y0050800D01*
X0044000Y0048457D01*
X0044000Y0045143D01*
X0044000Y0046558D02*
X0037000Y0046558D01*
X0037468Y0048157D02*
X0044000Y0048157D01*
X0045298Y0049755D02*
X0039067Y0049755D01*
X0040665Y0051354D02*
X0057900Y0051354D01*
X0057900Y0050786D02*
X0058676Y0048911D01*
X0060111Y0047476D01*
X0061986Y0046700D01*
X0064014Y0046700D01*
X0065889Y0047476D01*
X0067324Y0048911D01*
X0068100Y0050786D01*
X0068100Y0052814D01*
X0067324Y0054689D01*
X0065889Y0056124D01*
X0064763Y0056590D01*
X0065111Y0056703D01*
X0065883Y0057096D01*
X0066583Y0057605D01*
X0067195Y0058217D01*
X0067704Y0058917D01*
X0068097Y0059689D01*
X0068365Y0060512D01*
X0068500Y0061367D01*
X0068500Y0061600D01*
X0063200Y0061600D01*
X0063200Y0062000D01*
X0068500Y0062000D01*
X0068500Y0062233D01*
X0068365Y0063088D01*
X0068097Y0063911D01*
X0067704Y0064683D01*
X0067195Y0065383D01*
X0066583Y0065995D01*
X0065883Y0066504D01*
X0065111Y0066897D01*
X0064763Y0067010D01*
X0065889Y0067476D01*
X0067324Y0068911D01*
X0068100Y0070786D01*
X0068100Y0072814D01*
X0067324Y0074689D01*
X0065889Y0076124D01*
X0064014Y0076900D01*
X0061986Y0076900D01*
X0060111Y0076124D01*
X0058676Y0074689D01*
X0057900Y0072814D01*
X0057900Y0070786D01*
X0058676Y0068911D01*
X0060111Y0067476D01*
X0061237Y0067010D01*
X0060889Y0066897D01*
X0060117Y0066504D01*
X0059417Y0065995D01*
X0058805Y0065383D01*
X0058296Y0064683D01*
X0057903Y0063911D01*
X0057635Y0063088D01*
X0057500Y0062233D01*
X0057500Y0062000D01*
X0062800Y0062000D01*
X0062800Y0061600D01*
X0057500Y0061600D01*
X0057500Y0061367D01*
X0057635Y0060512D01*
X0057903Y0059689D01*
X0058296Y0058917D01*
X0058805Y0058217D01*
X0059417Y0057605D01*
X0060117Y0057096D01*
X0060889Y0056703D01*
X0061237Y0056590D01*
X0060111Y0056124D01*
X0058676Y0054689D01*
X0057900Y0052814D01*
X0057900Y0050786D01*
X0058327Y0049755D02*
X0050701Y0049755D01*
X0052000Y0048157D02*
X0059431Y0048157D01*
X0060361Y0044981D02*
X0055639Y0044981D01*
X0054819Y0044161D01*
X0054819Y0039439D01*
X0055639Y0038619D01*
X0060361Y0038619D01*
X0061181Y0039439D01*
X0061181Y0039600D01*
X0076982Y0039600D01*
X0077009Y0039534D01*
X0078134Y0038409D01*
X0079604Y0037800D01*
X0086396Y0037800D01*
X0087866Y0038409D01*
X0088991Y0039534D01*
X0089600Y0041004D01*
X0089600Y0042596D01*
X0088991Y0044066D01*
X0087866Y0045191D01*
X0086396Y0045800D01*
X0079604Y0045800D01*
X0078134Y0045191D01*
X0077009Y0044066D01*
X0076982Y0044000D01*
X0061181Y0044000D01*
X0061181Y0044161D01*
X0060361Y0044981D01*
X0060382Y0044960D02*
X0077903Y0044960D01*
X0079604Y0047800D02*
X0086396Y0047800D01*
X0087866Y0048409D01*
X0088991Y0049534D01*
X0089600Y0051004D01*
X0089600Y0052596D01*
X0088991Y0054066D01*
X0087866Y0055191D01*
X0086396Y0055800D01*
X0079604Y0055800D01*
X0078134Y0055191D01*
X0077009Y0054066D01*
X0076400Y0052596D01*
X0076400Y0051004D01*
X0077009Y0049534D01*
X0078134Y0048409D01*
X0079604Y0047800D01*
X0078743Y0048157D02*
X0066569Y0048157D01*
X0067673Y0049755D02*
X0076917Y0049755D01*
X0076400Y0051354D02*
X0068100Y0051354D01*
X0068043Y0052952D02*
X0076548Y0052952D01*
X0077494Y0054551D02*
X0067381Y0054551D01*
X0065827Y0056149D02*
X0198050Y0056149D01*
X0198050Y0054551D02*
X0118506Y0054551D01*
X0118991Y0054066D02*
X0117866Y0055191D01*
X0116396Y0055800D01*
X0109604Y0055800D01*
X0108134Y0055191D01*
X0107009Y0054066D01*
X0106400Y0052596D01*
X0106400Y0051004D01*
X0107009Y0049534D01*
X0108134Y0048409D01*
X0109604Y0047800D01*
X0116396Y0047800D01*
X0117866Y0048409D01*
X0118991Y0049534D01*
X0119600Y0051004D01*
X0119600Y0052596D01*
X0118991Y0054066D01*
X0119452Y0052952D02*
X0198050Y0052952D01*
X0198050Y0051354D02*
X0119600Y0051354D01*
X0119083Y0049755D02*
X0198050Y0049755D01*
X0198050Y0048157D02*
X0117257Y0048157D01*
X0116396Y0045800D02*
X0117866Y0045191D01*
X0118991Y0044066D01*
X0119600Y0042596D01*
X0119600Y0041004D01*
X0118991Y0039534D01*
X0117866Y0038409D01*
X0116396Y0037800D01*
X0109604Y0037800D01*
X0108134Y0038409D01*
X0107009Y0039534D01*
X0106400Y0041004D01*
X0106400Y0042596D01*
X0107009Y0044066D01*
X0108134Y0045191D01*
X0109604Y0045800D01*
X0116396Y0045800D01*
X0118097Y0044960D02*
X0198050Y0044960D01*
X0198050Y0046558D02*
X0052000Y0046558D01*
X0051817Y0044960D02*
X0055618Y0044960D01*
X0054819Y0043361D02*
X0050218Y0043361D01*
X0050200Y0041763D02*
X0054819Y0041763D01*
X0054819Y0040164D02*
X0049476Y0040164D01*
X0048000Y0041800D02*
X0048000Y0046800D01*
X0045782Y0043361D02*
X0035218Y0043361D01*
X0030782Y0043361D02*
X0024550Y0043361D01*
X0026148Y0041763D02*
X0044852Y0041763D01*
X0043253Y0040164D02*
X0027747Y0040164D01*
X0029345Y0038566D02*
X0041654Y0038566D01*
X0040056Y0036967D02*
X0030944Y0036967D01*
X0032543Y0035369D02*
X0038457Y0035369D01*
X0038000Y0031800D02*
X0048000Y0041800D01*
X0047877Y0038566D02*
X0077977Y0038566D01*
X0079604Y0035800D02*
X0078134Y0035191D01*
X0077009Y0034066D01*
X0076400Y0032596D01*
X0076400Y0031004D01*
X0077009Y0029534D01*
X0078134Y0028409D01*
X0079604Y0027800D01*
X0086396Y0027800D01*
X0087866Y0028409D01*
X0088991Y0029534D01*
X0089600Y0031004D01*
X0089600Y0032596D01*
X0088991Y0034066D01*
X0087866Y0035191D01*
X0086396Y0035800D01*
X0079604Y0035800D01*
X0078563Y0035369D02*
X0044680Y0035369D01*
X0046279Y0036967D02*
X0198050Y0036967D01*
X0198050Y0035369D02*
X0117437Y0035369D01*
X0117866Y0035191D02*
X0116396Y0035800D01*
X0109604Y0035800D01*
X0108134Y0035191D01*
X0107009Y0034066D01*
X0106400Y0032596D01*
X0106400Y0031004D01*
X0107009Y0029534D01*
X0108134Y0028409D01*
X0109604Y0027800D01*
X0116396Y0027800D01*
X0117866Y0028409D01*
X0118991Y0029534D01*
X0119600Y0031004D01*
X0119600Y0032596D01*
X0118991Y0034066D01*
X0117866Y0035191D01*
X0119113Y0033770D02*
X0198050Y0033770D01*
X0198050Y0032172D02*
X0119600Y0032172D01*
X0119421Y0030573D02*
X0198050Y0030573D01*
X0198050Y0028975D02*
X0118432Y0028975D01*
X0116450Y0025778D02*
X0198050Y0025778D01*
X0198050Y0027376D02*
X0096687Y0027376D01*
X0097930Y0028619D02*
X0100361Y0028619D01*
X0101181Y0029439D01*
X0101181Y0034161D01*
X0100361Y0034981D01*
X0095639Y0034981D01*
X0094819Y0034161D01*
X0094819Y0031730D01*
X0088073Y0024984D01*
X0087866Y0025191D01*
X0086396Y0025800D01*
X0079604Y0025800D01*
X0078134Y0025191D01*
X0077009Y0024066D01*
X0076400Y0022596D01*
X0076400Y0021004D01*
X0077009Y0019534D01*
X0078134Y0018409D01*
X0079604Y0017800D01*
X0086396Y0017800D01*
X0087866Y0018409D01*
X0088991Y0019534D01*
X0089094Y0019783D01*
X0097930Y0028619D01*
X0095089Y0025778D02*
X0109550Y0025778D01*
X0109604Y0025800D02*
X0108134Y0025191D01*
X0107009Y0024066D01*
X0106400Y0022596D01*
X0106400Y0021004D01*
X0107009Y0019534D01*
X0108134Y0018409D01*
X0109604Y0017800D01*
X0116396Y0017800D01*
X0117866Y0018409D01*
X0118991Y0019534D01*
X0119600Y0021004D01*
X0119600Y0022596D01*
X0118991Y0024066D01*
X0117866Y0025191D01*
X0116396Y0025800D01*
X0109604Y0025800D01*
X0107122Y0024179D02*
X0093490Y0024179D01*
X0091892Y0022581D02*
X0106400Y0022581D01*
X0106409Y0020982D02*
X0090293Y0020982D01*
X0088840Y0019384D02*
X0107160Y0019384D01*
X0107568Y0028975D02*
X0100717Y0028975D01*
X0101181Y0030573D02*
X0106579Y0030573D01*
X0106400Y0032172D02*
X0101181Y0032172D01*
X0101181Y0033770D02*
X0106887Y0033770D01*
X0108563Y0035369D02*
X0087437Y0035369D01*
X0089113Y0033770D02*
X0094819Y0033770D01*
X0094819Y0032172D02*
X0089600Y0032172D01*
X0089421Y0030573D02*
X0093662Y0030573D01*
X0092063Y0028975D02*
X0088432Y0028975D01*
X0090465Y0027376D02*
X0067400Y0027376D01*
X0067400Y0026800D02*
X0067400Y0028623D01*
X0064823Y0031200D01*
X0063000Y0031200D01*
X0063000Y0026800D01*
X0063000Y0026800D01*
X0067400Y0026800D01*
X0063000Y0026800D01*
X0063000Y0026800D01*
X0063000Y0026800D01*
X0058600Y0026800D01*
X0058600Y0028623D01*
X0061177Y0031200D01*
X0063000Y0031200D01*
X0063000Y0026800D01*
X0063000Y0022400D01*
X0064823Y0022400D01*
X0067400Y0024977D01*
X0067400Y0026800D01*
X0067400Y0025778D02*
X0079550Y0025778D01*
X0077122Y0024179D02*
X0066602Y0024179D01*
X0065003Y0022581D02*
X0076400Y0022581D01*
X0076409Y0020982D02*
X0061929Y0020982D01*
X0062111Y0020800D02*
X0051411Y0031500D01*
X0048681Y0031500D01*
X0048681Y0031661D01*
X0047861Y0032481D01*
X0043139Y0032481D01*
X0042319Y0031661D01*
X0042319Y0026939D01*
X0043139Y0026119D01*
X0047861Y0026119D01*
X0048681Y0026939D01*
X0048681Y0027100D01*
X0049589Y0027100D01*
X0059000Y0017689D01*
X0059000Y0015143D01*
X0061343Y0012800D01*
X0064657Y0012800D01*
X0067000Y0015143D01*
X0067000Y0018457D01*
X0064657Y0020800D01*
X0062111Y0020800D01*
X0063000Y0022400D02*
X0061177Y0022400D01*
X0058600Y0024977D01*
X0058600Y0026800D01*
X0063000Y0026800D01*
X0063000Y0026800D01*
X0063000Y0022400D01*
X0063000Y0022581D02*
X0063000Y0022581D01*
X0063000Y0024179D02*
X0063000Y0024179D01*
X0063000Y0025778D02*
X0063000Y0025778D01*
X0063000Y0027376D02*
X0063000Y0027376D01*
X0063000Y0028975D02*
X0063000Y0028975D01*
X0063000Y0030573D02*
X0063000Y0030573D01*
X0065449Y0030573D02*
X0076579Y0030573D01*
X0076400Y0032172D02*
X0048170Y0032172D01*
X0050500Y0029300D02*
X0045500Y0029300D01*
X0042319Y0028975D02*
X0015796Y0028975D01*
X0015252Y0028430D02*
X0016370Y0029548D01*
X0016975Y0031009D01*
X0016975Y0032591D01*
X0016370Y0034052D01*
X0015252Y0035170D01*
X0013791Y0035775D01*
X0012209Y0035775D01*
X0010748Y0035170D01*
X0009630Y0034052D01*
X0009025Y0032591D01*
X0009025Y0031009D01*
X0009630Y0029548D01*
X0010748Y0028430D01*
X0012209Y0027825D01*
X0013791Y0027825D01*
X0015252Y0028430D01*
X0016794Y0030573D02*
X0031116Y0030573D01*
X0033000Y0031800D02*
X0038000Y0031800D01*
X0039884Y0030573D02*
X0042319Y0030573D01*
X0042830Y0032172D02*
X0041483Y0032172D01*
X0043081Y0033770D02*
X0076887Y0033770D01*
X0077568Y0028975D02*
X0067048Y0028975D01*
X0060551Y0030573D02*
X0052338Y0030573D01*
X0050500Y0029300D02*
X0063000Y0016800D01*
X0066073Y0019384D02*
X0077160Y0019384D01*
X0078677Y0013700D02*
X0076100Y0011123D01*
X0076100Y0009300D01*
X0080500Y0009300D01*
X0084900Y0009300D01*
X0084900Y0011123D01*
X0082323Y0013700D01*
X0080500Y0013700D01*
X0080500Y0009300D01*
X0080500Y0009300D01*
X0080500Y0009300D01*
X0084900Y0009300D01*
X0084900Y0007477D01*
X0082323Y0004900D01*
X0080500Y0004900D01*
X0080500Y0009300D01*
X0080500Y0009300D01*
X0080500Y0009300D01*
X0080500Y0013700D01*
X0078677Y0013700D01*
X0077967Y0012990D02*
X0064846Y0012990D01*
X0066445Y0014588D02*
X0129555Y0014588D01*
X0129000Y0015143D02*
X0131343Y0012800D01*
X0134657Y0012800D01*
X0137000Y0015143D01*
X0137000Y0018457D01*
X0134657Y0020800D01*
X0131343Y0020800D01*
X0129000Y0018457D01*
X0129000Y0015143D01*
X0129000Y0016187D02*
X0067000Y0016187D01*
X0067000Y0017785D02*
X0129000Y0017785D01*
X0129927Y0019384D02*
X0118840Y0019384D01*
X0119591Y0020982D02*
X0198050Y0020982D01*
X0198050Y0019384D02*
X0146073Y0019384D01*
X0147000Y0018457D02*
X0144657Y0020800D01*
X0141343Y0020800D01*
X0139000Y0018457D01*
X0139000Y0015143D01*
X0141343Y0012800D01*
X0144657Y0012800D01*
X0147000Y0015143D01*
X0147000Y0018457D01*
X0147000Y0017785D02*
X0198050Y0017785D01*
X0198050Y0016187D02*
X0147000Y0016187D01*
X0146445Y0014588D02*
X0198050Y0014588D01*
X0198050Y0012990D02*
X0144846Y0012990D01*
X0141154Y0012990D02*
X0134846Y0012990D01*
X0136445Y0014588D02*
X0139555Y0014588D01*
X0139000Y0016187D02*
X0137000Y0016187D01*
X0137000Y0017785D02*
X0139000Y0017785D01*
X0139927Y0019384D02*
X0136073Y0019384D01*
X0131154Y0012990D02*
X0122467Y0012990D01*
X0122157Y0013300D02*
X0118843Y0013300D01*
X0116500Y0010957D01*
X0116500Y0007643D01*
X0118843Y0005300D01*
X0122157Y0005300D01*
X0124500Y0007643D01*
X0124500Y0010957D01*
X0122157Y0013300D01*
X0124066Y0011391D02*
X0198050Y0011391D01*
X0198050Y0009793D02*
X0124500Y0009793D01*
X0124500Y0008194D02*
X0198050Y0008194D01*
X0198050Y0006596D02*
X0123452Y0006596D01*
X0117548Y0006596D02*
X0084018Y0006596D01*
X0084900Y0008194D02*
X0116500Y0008194D01*
X0116500Y0009793D02*
X0084900Y0009793D01*
X0084631Y0011391D02*
X0116934Y0011391D01*
X0118533Y0012990D02*
X0083033Y0012990D01*
X0080500Y0012990D02*
X0080500Y0012990D01*
X0080500Y0011391D02*
X0080500Y0011391D01*
X0080500Y0009793D02*
X0080500Y0009793D01*
X0080500Y0009300D02*
X0076100Y0009300D01*
X0076100Y0007477D01*
X0078677Y0004900D01*
X0080500Y0004900D01*
X0080500Y0009300D01*
X0080500Y0008194D02*
X0080500Y0008194D01*
X0080500Y0006596D02*
X0080500Y0006596D01*
X0080500Y0004997D02*
X0080500Y0004997D01*
X0082420Y0004997D02*
X0198050Y0004997D01*
X0198050Y0022581D02*
X0119600Y0022581D01*
X0118878Y0024179D02*
X0198050Y0024179D01*
X0198050Y0038566D02*
X0118023Y0038566D01*
X0119252Y0040164D02*
X0198050Y0040164D01*
X0198050Y0041763D02*
X0119600Y0041763D01*
X0119283Y0043361D02*
X0198050Y0043361D01*
X0198050Y0057748D02*
X0117339Y0057748D01*
X0117289Y0057722D02*
X0117906Y0058037D01*
X0118466Y0058444D01*
X0118956Y0058934D01*
X0119363Y0059494D01*
X0119678Y0060111D01*
X0119892Y0060770D01*
X0120000Y0061454D01*
X0120000Y0061800D01*
X0120000Y0062146D01*
X0119892Y0062830D01*
X0119678Y0063489D01*
X0119363Y0064106D01*
X0118956Y0064666D01*
X0118466Y0065156D01*
X0117906Y0065563D01*
X0117289Y0065878D01*
X0116630Y0066092D01*
X0115946Y0066200D01*
X0113000Y0066200D01*
X0113000Y0061800D01*
X0113000Y0061800D01*
X0120000Y0061800D01*
X0113000Y0061800D01*
X0113000Y0061800D01*
X0113000Y0057400D01*
X0115946Y0057400D01*
X0116630Y0057508D01*
X0117289Y0057722D01*
X0119256Y0059346D02*
X0198050Y0059346D01*
X0198050Y0060945D02*
X0119919Y0060945D01*
X0119937Y0062543D02*
X0192002Y0062543D01*
X0191917Y0062605D02*
X0192617Y0062096D01*
X0193389Y0061703D01*
X0194212Y0061435D01*
X0195067Y0061300D01*
X0195300Y0061300D01*
X0195300Y0066600D01*
X0190000Y0066600D01*
X0190000Y0066367D01*
X0190135Y0065512D01*
X0190403Y0064689D01*
X0190796Y0063917D01*
X0191305Y0063217D01*
X0191917Y0062605D01*
X0190682Y0064142D02*
X0119337Y0064142D01*
X0117558Y0065740D02*
X0190099Y0065740D01*
X0190017Y0067339D02*
X0150539Y0067339D01*
X0150050Y0066850D02*
X0152950Y0069750D01*
X0152950Y0071800D01*
X0152950Y0073850D01*
X0150050Y0076750D01*
X0148000Y0076750D01*
X0148000Y0071800D01*
X0152950Y0071800D01*
X0148000Y0071800D01*
X0148000Y0071800D01*
X0148000Y0071800D01*
X0148000Y0066850D01*
X0150050Y0066850D01*
X0148000Y0066850D02*
X0148000Y0071800D01*
X0148000Y0071800D01*
X0148000Y0071800D01*
X0143050Y0071800D01*
X0143050Y0073850D01*
X0145950Y0076750D01*
X0148000Y0076750D01*
X0148000Y0071800D01*
X0143050Y0071800D01*
X0143050Y0069750D01*
X0145950Y0066850D01*
X0148000Y0066850D01*
X0148000Y0067339D02*
X0148000Y0067339D01*
X0148000Y0068937D02*
X0148000Y0068937D01*
X0148000Y0070536D02*
X0148000Y0070536D01*
X0148000Y0072134D02*
X0148000Y0072134D01*
X0148000Y0073733D02*
X0148000Y0073733D01*
X0148000Y0075332D02*
X0148000Y0075332D01*
X0151469Y0075332D02*
X0190588Y0075332D01*
X0191354Y0073733D02*
X0152950Y0073733D01*
X0152950Y0072134D02*
X0193437Y0072134D01*
X0191458Y0070536D02*
X0152950Y0070536D01*
X0152138Y0068937D02*
X0190416Y0068937D01*
X0195300Y0065740D02*
X0195700Y0065740D01*
X0195700Y0064142D02*
X0195300Y0064142D01*
X0195300Y0062543D02*
X0195700Y0062543D01*
X0195500Y0076800D02*
X0160500Y0086800D01*
X0143000Y0086800D01*
X0138000Y0091800D01*
X0133000Y0156800D01*
X0118000Y0166800D01*
X0103000Y0166800D01*
X0099819Y0166447D02*
X0090758Y0166447D01*
X0092356Y0168045D02*
X0099819Y0168045D01*
X0100302Y0169644D02*
X0093955Y0169644D01*
X0095553Y0171242D02*
X0160447Y0171242D01*
X0162045Y0169644D02*
X0130813Y0169644D01*
X0132000Y0168045D02*
X0163644Y0168045D01*
X0164000Y0166447D02*
X0132000Y0166447D01*
X0131705Y0164848D02*
X0164295Y0164848D01*
X0165894Y0163250D02*
X0130106Y0163250D01*
X0129689Y0161651D02*
X0187900Y0161651D01*
X0188080Y0163250D02*
X0170106Y0163250D01*
X0171705Y0164848D02*
X0188836Y0164848D01*
X0190891Y0166447D02*
X0172000Y0166447D01*
X0172356Y0168045D02*
X0188977Y0168045D01*
X0187926Y0169644D02*
X0173955Y0169644D01*
X0175553Y0171242D02*
X0187520Y0171242D01*
X0187596Y0172841D02*
X0177152Y0172841D01*
X0178750Y0174439D02*
X0188172Y0174439D01*
X0189476Y0176038D02*
X0180349Y0176038D01*
X0181948Y0177636D02*
X0189951Y0177636D01*
X0188542Y0179235D02*
X0183546Y0179235D01*
X0185145Y0180833D02*
X0187900Y0180833D01*
X0187900Y0182432D02*
X0186743Y0182432D01*
X0188342Y0184030D02*
X0188404Y0184030D01*
X0185316Y0187227D02*
X0177362Y0187227D01*
X0177375Y0187144D02*
X0177267Y0187824D01*
X0177054Y0188479D01*
X0176742Y0189093D01*
X0176337Y0189650D01*
X0175850Y0190137D01*
X0175293Y0190542D01*
X0174679Y0190854D01*
X0174024Y0191067D01*
X0173344Y0191175D01*
X0173000Y0191175D01*
X0173000Y0186800D01*
X0177375Y0186800D01*
X0177375Y0187144D01*
X0177375Y0186800D02*
X0173000Y0186800D01*
X0173000Y0186800D01*
X0173000Y0186800D01*
X0173000Y0182425D01*
X0173344Y0182425D01*
X0174024Y0182533D01*
X0174679Y0182746D01*
X0175293Y0183058D01*
X0175850Y0183463D01*
X0176337Y0183950D01*
X0176742Y0184507D01*
X0177054Y0185121D01*
X0177267Y0185776D01*
X0177375Y0186456D01*
X0177375Y0186800D01*
X0177219Y0185629D02*
X0183718Y0185629D01*
X0182119Y0184030D02*
X0176395Y0184030D01*
X0173000Y0184030D02*
X0173000Y0184030D01*
X0173000Y0182432D02*
X0173000Y0182432D01*
X0173000Y0182425D02*
X0173000Y0186800D01*
X0173000Y0186800D01*
X0173000Y0186800D01*
X0168625Y0186800D01*
X0168625Y0187144D01*
X0168733Y0187824D01*
X0168946Y0188479D01*
X0169258Y0189093D01*
X0169663Y0189650D01*
X0170150Y0190137D01*
X0170707Y0190542D01*
X0171321Y0190854D01*
X0171976Y0191067D01*
X0172656Y0191175D01*
X0173000Y0191175D01*
X0173000Y0186800D01*
X0168625Y0186800D01*
X0168625Y0186456D01*
X0168733Y0185776D01*
X0168946Y0185121D01*
X0169258Y0184507D01*
X0169663Y0183950D01*
X0170150Y0183463D01*
X0170707Y0183058D01*
X0171321Y0182746D01*
X0171976Y0182533D01*
X0172656Y0182425D01*
X0173000Y0182425D01*
X0173386Y0182432D02*
X0180521Y0182432D01*
X0178922Y0180833D02*
X0157078Y0180833D01*
X0158677Y0179235D02*
X0177323Y0179235D01*
X0175725Y0177636D02*
X0160275Y0177636D01*
X0161874Y0176038D02*
X0174126Y0176038D01*
X0172528Y0174439D02*
X0163472Y0174439D01*
X0165071Y0172841D02*
X0170929Y0172841D01*
X0169331Y0171242D02*
X0166669Y0171242D01*
X0168000Y0166800D02*
X0193000Y0191800D01*
X0189207Y0195220D02*
X0140803Y0195220D01*
X0142400Y0193621D02*
X0188234Y0193621D01*
X0187900Y0192023D02*
X0142400Y0192023D01*
X0142400Y0190424D02*
X0151363Y0190424D01*
X0149537Y0188826D02*
X0141248Y0188826D01*
X0138000Y0188826D02*
X0138000Y0188826D01*
X0138000Y0190424D02*
X0138000Y0190424D01*
X0138000Y0192023D02*
X0138000Y0192023D01*
X0138000Y0193621D02*
X0138000Y0193621D01*
X0138000Y0195220D02*
X0138000Y0195220D01*
X0135197Y0195220D02*
X0102000Y0195220D01*
X0102000Y0193621D02*
X0133600Y0193621D01*
X0122124Y0190424D02*
X0118310Y0190424D01*
X0119586Y0188826D02*
X0120550Y0188826D01*
X0120550Y0187227D02*
X0120050Y0187227D01*
X0119940Y0185629D02*
X0120550Y0185629D01*
X0121269Y0184030D02*
X0119165Y0184030D01*
X0116844Y0182432D02*
X0122868Y0182432D01*
X0125187Y0169644D02*
X0105698Y0169644D01*
X0099819Y0164848D02*
X0089159Y0164848D01*
X0087561Y0163250D02*
X0119359Y0163250D01*
X0121757Y0161651D02*
X0085962Y0161651D01*
X0085200Y0160053D02*
X0124155Y0160053D01*
X0126553Y0158454D02*
X0085200Y0158454D01*
X0080800Y0158454D02*
X0052765Y0158454D01*
X0051167Y0156856D02*
X0080800Y0156856D01*
X0080800Y0160053D02*
X0054364Y0160053D01*
X0055962Y0161651D02*
X0080800Y0161651D01*
X0081338Y0163250D02*
X0057561Y0163250D01*
X0058000Y0166800D02*
X0038000Y0146800D01*
X0033000Y0146800D01*
X0028000Y0151800D01*
X0028000Y0166800D01*
X0023000Y0171800D01*
X0023000Y0176800D01*
X0028000Y0181800D01*
X0031504Y0181800D01*
X0033354Y0179950D01*
X0030046Y0177636D02*
X0026948Y0177636D01*
X0028546Y0179235D02*
X0029380Y0179235D01*
X0030120Y0176038D02*
X0025349Y0176038D01*
X0025200Y0174439D02*
X0029380Y0174439D01*
X0029387Y0172841D02*
X0025200Y0172841D01*
X0026669Y0171242D02*
X0030141Y0171242D01*
X0028268Y0169644D02*
X0033785Y0169644D01*
X0034455Y0168045D02*
X0029866Y0168045D01*
X0030200Y0166447D02*
X0036399Y0166447D01*
X0038079Y0166447D02*
X0038079Y0166447D01*
X0038079Y0166126D02*
X0038079Y0170501D01*
X0042454Y0170501D01*
X0038079Y0170501D01*
X0038079Y0170501D01*
X0038079Y0170501D01*
X0038079Y0166126D01*
X0039758Y0166447D02*
X0054535Y0166447D01*
X0054819Y0168045D02*
X0041702Y0168045D01*
X0042372Y0169644D02*
X0055302Y0169644D01*
X0059000Y0171242D02*
X0042391Y0171242D01*
X0041786Y0172841D02*
X0059000Y0172841D01*
X0059982Y0174439D02*
X0041339Y0174439D01*
X0042054Y0176038D02*
X0071015Y0176038D01*
X0071177Y0176200D02*
X0068600Y0173623D01*
X0068600Y0171800D01*
X0073000Y0171800D01*
X0077400Y0171800D01*
X0077400Y0173623D01*
X0074823Y0176200D01*
X0073000Y0176200D01*
X0073000Y0171800D01*
X0073000Y0171800D01*
X0073000Y0171800D01*
X0077400Y0171800D01*
X0077400Y0169977D01*
X0074823Y0167400D01*
X0073000Y0167400D01*
X0073000Y0171800D01*
X0073000Y0171800D01*
X0073000Y0171800D01*
X0073000Y0176200D01*
X0071177Y0176200D01*
X0073000Y0176038D02*
X0073000Y0176038D01*
X0073000Y0174439D02*
X0073000Y0174439D01*
X0073000Y0172841D02*
X0073000Y0172841D01*
X0073000Y0171800D02*
X0068600Y0171800D01*
X0068600Y0169977D01*
X0071177Y0167400D01*
X0073000Y0167400D01*
X0073000Y0171800D01*
X0073000Y0171242D02*
X0073000Y0171242D01*
X0073000Y0169644D02*
X0073000Y0169644D01*
X0073000Y0168045D02*
X0073000Y0168045D01*
X0075468Y0168045D02*
X0086134Y0168045D01*
X0084535Y0166447D02*
X0061181Y0166447D01*
X0061181Y0164848D02*
X0082937Y0164848D01*
X0087732Y0169644D02*
X0077066Y0169644D01*
X0077400Y0171242D02*
X0089331Y0171242D01*
X0090929Y0172841D02*
X0077400Y0172841D01*
X0076583Y0174439D02*
X0092528Y0174439D01*
X0094126Y0176038D02*
X0074985Y0176038D01*
X0069417Y0174439D02*
X0066018Y0174439D01*
X0067000Y0172841D02*
X0068600Y0172841D01*
X0068600Y0171242D02*
X0067000Y0171242D01*
X0066501Y0169644D02*
X0068934Y0169644D01*
X0070532Y0168045D02*
X0064902Y0168045D01*
X0052937Y0164848D02*
X0030200Y0164848D01*
X0030200Y0163250D02*
X0051338Y0163250D01*
X0049740Y0161651D02*
X0030200Y0161651D01*
X0030200Y0160053D02*
X0048141Y0160053D01*
X0046543Y0158454D02*
X0030200Y0158454D01*
X0030200Y0156856D02*
X0044944Y0156856D01*
X0043346Y0155257D02*
X0030200Y0155257D01*
X0030200Y0153659D02*
X0041747Y0153659D01*
X0040149Y0152060D02*
X0030851Y0152060D01*
X0032450Y0150462D02*
X0038550Y0150462D01*
X0039977Y0145666D02*
X0079281Y0145666D01*
X0079604Y0145800D02*
X0078134Y0145191D01*
X0077009Y0144066D01*
X0076400Y0142596D01*
X0076400Y0141004D01*
X0077009Y0139534D01*
X0078134Y0138409D01*
X0079604Y0137800D01*
X0086396Y0137800D01*
X0087866Y0138409D01*
X0088991Y0139534D01*
X0089600Y0141004D01*
X0089600Y0142596D01*
X0088991Y0144066D01*
X0087866Y0145191D01*
X0086396Y0145800D01*
X0079604Y0145800D01*
X0077011Y0144068D02*
X0004800Y0144068D01*
X0004800Y0145666D02*
X0031023Y0145666D01*
X0029424Y0147265D02*
X0004800Y0147265D01*
X0004800Y0148863D02*
X0027826Y0148863D01*
X0026227Y0150462D02*
X0004800Y0150462D01*
X0004800Y0152060D02*
X0025800Y0152060D01*
X0025800Y0153659D02*
X0004800Y0153659D01*
X0004800Y0155257D02*
X0025800Y0155257D01*
X0025800Y0156856D02*
X0022340Y0156856D01*
X0021971Y0156487D02*
X0019394Y0155420D01*
X0016606Y0155420D01*
X0014029Y0156487D01*
X0012057Y0158459D01*
X0010990Y0161035D01*
X0010990Y0163824D01*
X0012057Y0166401D01*
X0014029Y0168373D01*
X0016606Y0169440D01*
X0019394Y0169440D01*
X0021971Y0168373D01*
X0023943Y0166401D01*
X0025010Y0163824D01*
X0025010Y0161035D01*
X0023943Y0158459D01*
X0021971Y0156487D01*
X0023938Y0158454D02*
X0025800Y0158454D01*
X0025800Y0160053D02*
X0024603Y0160053D01*
X0025010Y0161651D02*
X0025800Y0161651D01*
X0025800Y0163250D02*
X0025010Y0163250D01*
X0024586Y0164848D02*
X0025800Y0164848D01*
X0025242Y0166447D02*
X0023897Y0166447D01*
X0023644Y0168045D02*
X0022299Y0168045D01*
X0022045Y0169644D02*
X0004800Y0169644D01*
X0004800Y0171242D02*
X0020800Y0171242D01*
X0020800Y0172841D02*
X0004800Y0172841D01*
X0004800Y0174439D02*
X0020800Y0174439D01*
X0020800Y0176038D02*
X0004800Y0176038D01*
X0004800Y0177636D02*
X0020800Y0177636D01*
X0022323Y0179235D02*
X0004800Y0179235D01*
X0004800Y0180833D02*
X0023922Y0180833D01*
X0025521Y0182432D02*
X0004800Y0182432D01*
X0004800Y0184030D02*
X0034162Y0184030D01*
X0034987Y0185629D02*
X0022373Y0185629D01*
X0023955Y0187227D02*
X0088600Y0187227D01*
X0095800Y0177711D02*
X0095800Y0177711D01*
X0095725Y0177636D02*
X0042035Y0177636D01*
X0038079Y0169644D02*
X0038079Y0169644D01*
X0038079Y0168045D02*
X0038079Y0168045D01*
X0025800Y0182711D02*
X0025800Y0182711D01*
X0013627Y0185629D02*
X0004800Y0185629D01*
X0004800Y0187227D02*
X0012045Y0187227D01*
X0011383Y0188826D02*
X0004800Y0188826D01*
X0004800Y0190424D02*
X0010990Y0190424D01*
X0010990Y0192023D02*
X0004800Y0192023D01*
X0004800Y0193621D02*
X0011428Y0193621D01*
X0012136Y0195220D02*
X0004800Y0195220D01*
X0004800Y0196818D02*
X0013734Y0196818D01*
X0013701Y0168045D02*
X0004800Y0168045D01*
X0004800Y0166447D02*
X0012103Y0166447D01*
X0011414Y0164848D02*
X0004800Y0164848D01*
X0004800Y0163250D02*
X0010990Y0163250D01*
X0010990Y0161651D02*
X0004800Y0161651D01*
X0004800Y0160053D02*
X0011397Y0160053D01*
X0012062Y0158454D02*
X0004800Y0158454D01*
X0004800Y0156856D02*
X0013660Y0156856D01*
X0004800Y0142469D02*
X0076400Y0142469D01*
X0076455Y0140870D02*
X0011142Y0140870D01*
X0012496Y0139272D02*
X0077271Y0139272D01*
X0078134Y0135191D02*
X0079604Y0135800D01*
X0086396Y0135800D01*
X0087866Y0135191D01*
X0088991Y0134066D01*
X0089600Y0132596D01*
X0089600Y0131004D01*
X0088991Y0129534D01*
X0087866Y0128409D01*
X0086396Y0127800D01*
X0079604Y0127800D01*
X0078134Y0128409D01*
X0077009Y0129534D01*
X0076400Y0131004D01*
X0076400Y0132596D01*
X0077009Y0134066D01*
X0078134Y0135191D01*
X0077420Y0134476D02*
X0012558Y0134476D01*
X0013100Y0136075D02*
X0090800Y0136075D01*
X0090800Y0137673D02*
X0013100Y0137673D01*
X0011290Y0132878D02*
X0076517Y0132878D01*
X0076400Y0131279D02*
X0010513Y0131279D01*
X0012327Y0129681D02*
X0076948Y0129681D01*
X0078923Y0128082D02*
X0012989Y0128082D01*
X0013100Y0126484D02*
X0089573Y0126484D01*
X0090800Y0128082D02*
X0087077Y0128082D01*
X0089052Y0129681D02*
X0090800Y0129681D01*
X0090800Y0131279D02*
X0089600Y0131279D01*
X0089483Y0132878D02*
X0090800Y0132878D01*
X0090800Y0134476D02*
X0088580Y0134476D01*
X0088729Y0139272D02*
X0090800Y0139272D01*
X0090800Y0140870D02*
X0089545Y0140870D01*
X0089600Y0142469D02*
X0090800Y0142469D01*
X0092156Y0144068D02*
X0088989Y0144068D01*
X0086719Y0145666D02*
X0093755Y0145666D01*
X0093000Y0141800D02*
X0098000Y0146800D01*
X0103000Y0146800D01*
X0100190Y0144068D02*
X0098379Y0144068D01*
X0099930Y0139272D02*
X0095200Y0139272D01*
X0095200Y0137673D02*
X0099819Y0137673D01*
X0099164Y0136075D02*
X0095200Y0136075D01*
X0095200Y0134476D02*
X0097565Y0134476D01*
X0095967Y0132878D02*
X0095200Y0132878D01*
X0095200Y0131279D02*
X0095800Y0131279D01*
X0095800Y0129681D02*
X0095200Y0129681D01*
X0095200Y0128082D02*
X0095800Y0128082D01*
X0095800Y0126484D02*
X0095200Y0126484D01*
X0095800Y0124885D02*
X0094197Y0124885D01*
X0093000Y0126800D02*
X0093000Y0141800D01*
X0098000Y0131800D02*
X0103000Y0136800D01*
X0102189Y0132878D02*
X0106517Y0132878D01*
X0106400Y0131279D02*
X0100591Y0131279D01*
X0100200Y0129681D02*
X0106948Y0129681D01*
X0098000Y0131800D02*
X0098000Y0121800D01*
X0088000Y0111800D01*
X0083000Y0111800D01*
X0078384Y0115294D02*
X0012897Y0115294D01*
X0013100Y0116893D02*
X0089982Y0116893D01*
X0091580Y0118491D02*
X0087948Y0118491D01*
X0089401Y0120090D02*
X0093179Y0120090D01*
X0094777Y0121688D02*
X0091000Y0121688D01*
X0092598Y0123287D02*
X0095800Y0123287D01*
X0093000Y0126800D02*
X0088000Y0121800D01*
X0083000Y0121800D01*
X0078052Y0118491D02*
X0012820Y0118491D01*
X0011923Y0120090D02*
X0076779Y0120090D01*
X0076400Y0121688D02*
X0009525Y0121688D01*
X0011699Y0123287D02*
X0076686Y0123287D01*
X0077829Y0124885D02*
X0012727Y0124885D01*
X0012108Y0113696D02*
X0076856Y0113696D01*
X0076400Y0112097D02*
X0009974Y0112097D01*
X0011514Y0110499D02*
X0076609Y0110499D01*
X0077643Y0108900D02*
X0012650Y0108900D01*
X0013100Y0107302D02*
X0115390Y0107302D01*
X0118952Y0104105D02*
X0134847Y0104105D01*
X0134724Y0105703D02*
X0120014Y0105703D01*
X0121613Y0107302D02*
X0134601Y0107302D01*
X0134478Y0108900D02*
X0123212Y0108900D01*
X0124810Y0110499D02*
X0134355Y0110499D01*
X0134232Y0112097D02*
X0125200Y0112097D01*
X0125200Y0113696D02*
X0134109Y0113696D01*
X0133986Y0115294D02*
X0125200Y0115294D01*
X0125200Y0116893D02*
X0133863Y0116893D01*
X0133740Y0118491D02*
X0125200Y0118491D01*
X0125200Y0120090D02*
X0133617Y0120090D01*
X0133494Y0121688D02*
X0125200Y0121688D01*
X0125200Y0123287D02*
X0133371Y0123287D01*
X0133248Y0124885D02*
X0125200Y0124885D01*
X0120800Y0115294D02*
X0117616Y0115294D01*
X0119144Y0113696D02*
X0120800Y0113696D01*
X0120186Y0112097D02*
X0119600Y0112097D01*
X0119600Y0102506D02*
X0134970Y0102506D01*
X0135093Y0100908D02*
X0119560Y0100908D01*
X0118766Y0099309D02*
X0135216Y0099309D01*
X0135339Y0097711D02*
X0112022Y0097711D01*
X0110423Y0096112D02*
X0135462Y0096112D01*
X0135585Y0094514D02*
X0118543Y0094514D01*
X0119468Y0092915D02*
X0135708Y0092915D01*
X0135800Y0091317D02*
X0119600Y0091317D01*
X0119067Y0089718D02*
X0136971Y0089718D01*
X0138569Y0088120D02*
X0117167Y0088120D01*
X0116396Y0085800D02*
X0117866Y0085191D01*
X0118991Y0084066D01*
X0119600Y0082596D01*
X0119600Y0081004D01*
X0118991Y0079534D01*
X0117866Y0078409D01*
X0116396Y0077800D01*
X0109604Y0077800D01*
X0108134Y0078409D01*
X0107009Y0079534D01*
X0106400Y0081004D01*
X0106400Y0082596D01*
X0107009Y0084066D01*
X0108134Y0085191D01*
X0109604Y0085800D01*
X0116396Y0085800D01*
X0118134Y0084923D02*
X0141766Y0084923D01*
X0140168Y0086521D02*
X0100832Y0086521D01*
X0099234Y0084923D02*
X0107866Y0084923D01*
X0106702Y0083324D02*
X0089731Y0083324D01*
X0090000Y0081800D02*
X0083000Y0081800D01*
X0083000Y0081800D01*
X0083000Y0077400D01*
X0085946Y0077400D01*
X0086630Y0077508D01*
X0087289Y0077722D01*
X0087906Y0078037D01*
X0088466Y0078444D01*
X0088956Y0078934D01*
X0089363Y0079494D01*
X0089678Y0080111D01*
X0089892Y0080770D01*
X0090000Y0081454D01*
X0090000Y0081800D01*
X0090000Y0081726D02*
X0106400Y0081726D01*
X0106763Y0080127D02*
X0089683Y0080127D01*
X0088551Y0078529D02*
X0108015Y0078529D01*
X0109604Y0075800D02*
X0108134Y0075191D01*
X0107009Y0074066D01*
X0106400Y0072596D01*
X0106400Y0071004D01*
X0107009Y0069534D01*
X0108134Y0068409D01*
X0109604Y0067800D01*
X0116396Y0067800D01*
X0117866Y0068409D01*
X0118991Y0069534D01*
X0119600Y0071004D01*
X0119600Y0072596D01*
X0118991Y0074066D01*
X0117866Y0075191D01*
X0116396Y0075800D01*
X0109604Y0075800D01*
X0108473Y0075332D02*
X0087527Y0075332D01*
X0087866Y0075191D02*
X0086396Y0075800D01*
X0079604Y0075800D01*
X0078134Y0075191D01*
X0077009Y0074066D01*
X0076400Y0072596D01*
X0076400Y0071004D01*
X0077009Y0069534D01*
X0078134Y0068409D01*
X0079604Y0067800D01*
X0086396Y0067800D01*
X0087866Y0068409D01*
X0088991Y0069534D01*
X0089600Y0071004D01*
X0089600Y0072596D01*
X0088991Y0074066D01*
X0087866Y0075191D01*
X0089129Y0073733D02*
X0106871Y0073733D01*
X0106400Y0072134D02*
X0089600Y0072134D01*
X0089406Y0070536D02*
X0106594Y0070536D01*
X0107606Y0068937D02*
X0088394Y0068937D01*
X0086539Y0065740D02*
X0108442Y0065740D01*
X0108711Y0065878D02*
X0108094Y0065563D01*
X0107534Y0065156D01*
X0107044Y0064666D01*
X0106637Y0064106D01*
X0106322Y0063489D01*
X0106108Y0062830D01*
X0106000Y0062146D01*
X0106000Y0061800D01*
X0113000Y0061800D01*
X0113000Y0061800D01*
X0113000Y0061800D01*
X0113000Y0066200D01*
X0110054Y0066200D01*
X0109370Y0066092D01*
X0108711Y0065878D01*
X0106663Y0064142D02*
X0088915Y0064142D01*
X0088991Y0064066D02*
X0087866Y0065191D01*
X0086396Y0065800D01*
X0079604Y0065800D01*
X0078134Y0065191D01*
X0077009Y0064066D01*
X0076400Y0062596D01*
X0076400Y0061004D01*
X0077009Y0059534D01*
X0078134Y0058409D01*
X0079604Y0057800D01*
X0086396Y0057800D01*
X0087866Y0058409D01*
X0088991Y0059534D01*
X0089600Y0061004D01*
X0089600Y0062596D01*
X0088991Y0064066D01*
X0089600Y0062543D02*
X0106063Y0062543D01*
X0106000Y0061800D02*
X0106000Y0061454D01*
X0106108Y0060770D01*
X0106322Y0060111D01*
X0106637Y0059494D01*
X0107044Y0058934D01*
X0107534Y0058444D01*
X0108094Y0058037D01*
X0108711Y0057722D01*
X0109370Y0057508D01*
X0110054Y0057400D01*
X0113000Y0057400D01*
X0113000Y0061800D01*
X0106000Y0061800D01*
X0106081Y0060945D02*
X0089575Y0060945D01*
X0088803Y0059346D02*
X0106744Y0059346D01*
X0108661Y0057748D02*
X0066726Y0057748D01*
X0067923Y0059346D02*
X0077197Y0059346D01*
X0076425Y0060945D02*
X0068433Y0060945D01*
X0068451Y0062543D02*
X0076400Y0062543D01*
X0077085Y0064142D02*
X0067980Y0064142D01*
X0066838Y0065740D02*
X0079461Y0065740D01*
X0077606Y0068937D02*
X0067334Y0068937D01*
X0067997Y0070536D02*
X0076594Y0070536D01*
X0076400Y0072134D02*
X0068100Y0072134D01*
X0067720Y0073733D02*
X0076871Y0073733D01*
X0078473Y0075332D02*
X0066681Y0075332D01*
X0061037Y0081726D02*
X0076000Y0081726D01*
X0076000Y0081800D02*
X0076000Y0081454D01*
X0076108Y0080770D01*
X0076322Y0080111D01*
X0076637Y0079494D01*
X0077044Y0078934D01*
X0077534Y0078444D01*
X0078094Y0078037D01*
X0078711Y0077722D01*
X0079370Y0077508D01*
X0080054Y0077400D01*
X0083000Y0077400D01*
X0083000Y0081800D01*
X0083000Y0081800D01*
X0083000Y0081800D01*
X0076000Y0081800D01*
X0076269Y0083324D02*
X0062635Y0083324D01*
X0059438Y0080127D02*
X0076317Y0080127D01*
X0077449Y0078529D02*
X0057840Y0078529D01*
X0056241Y0076930D02*
X0187037Y0076930D01*
X0186269Y0081726D02*
X0194064Y0081726D01*
X0191763Y0083324D02*
X0180674Y0083324D01*
X0181442Y0078529D02*
X0117985Y0078529D01*
X0119237Y0080127D02*
X0175847Y0080127D01*
X0175079Y0084923D02*
X0190757Y0084923D01*
X0190400Y0086521D02*
X0169484Y0086521D01*
X0170252Y0081726D02*
X0119600Y0081726D01*
X0119298Y0083324D02*
X0164658Y0083324D01*
X0163889Y0088120D02*
X0190526Y0088120D01*
X0191206Y0089718D02*
X0143193Y0089718D01*
X0141595Y0091317D02*
X0193077Y0091317D01*
X0192172Y0092915D02*
X0140121Y0092915D01*
X0139998Y0094514D02*
X0190927Y0094514D01*
X0190400Y0096112D02*
X0139875Y0096112D01*
X0139752Y0097711D02*
X0190400Y0097711D01*
X0191019Y0099309D02*
X0139629Y0099309D01*
X0139506Y0100908D02*
X0192395Y0100908D01*
X0192581Y0102506D02*
X0139383Y0102506D01*
X0139260Y0104105D02*
X0191096Y0104105D01*
X0190434Y0105703D02*
X0139137Y0105703D01*
X0139014Y0107302D02*
X0190400Y0107302D01*
X0190850Y0108900D02*
X0138891Y0108900D01*
X0138768Y0110499D02*
X0191986Y0110499D01*
X0193526Y0112097D02*
X0138645Y0112097D01*
X0138522Y0113696D02*
X0191392Y0113696D01*
X0190603Y0115294D02*
X0138399Y0115294D01*
X0138276Y0116893D02*
X0190400Y0116893D01*
X0190680Y0118491D02*
X0138153Y0118491D01*
X0138030Y0120090D02*
X0191577Y0120090D01*
X0193975Y0121688D02*
X0137907Y0121688D01*
X0137784Y0123287D02*
X0191801Y0123287D01*
X0190773Y0124885D02*
X0137661Y0124885D01*
X0137538Y0126484D02*
X0190400Y0126484D01*
X0190511Y0128082D02*
X0145505Y0128082D01*
X0144823Y0127400D02*
X0147400Y0129977D01*
X0147400Y0131800D01*
X0147400Y0133623D01*
X0144823Y0136200D01*
X0143000Y0136200D01*
X0143000Y0131800D01*
X0143000Y0131800D01*
X0147400Y0131800D01*
X0143000Y0131800D01*
X0143000Y0131800D01*
X0143000Y0131800D01*
X0138600Y0131800D01*
X0138600Y0133623D01*
X0141177Y0136200D01*
X0143000Y0136200D01*
X0143000Y0131800D01*
X0143000Y0127400D01*
X0144823Y0127400D01*
X0143000Y0127400D02*
X0143000Y0131800D01*
X0143000Y0131800D01*
X0138600Y0131800D01*
X0138600Y0129977D01*
X0141177Y0127400D01*
X0143000Y0127400D01*
X0143000Y0128082D02*
X0143000Y0128082D01*
X0143000Y0129681D02*
X0143000Y0129681D01*
X0143000Y0131279D02*
X0143000Y0131279D01*
X0143000Y0132878D02*
X0143000Y0132878D01*
X0143000Y0134476D02*
X0143000Y0134476D01*
X0143000Y0136075D02*
X0143000Y0136075D01*
X0144948Y0136075D02*
X0190400Y0136075D01*
X0190400Y0137673D02*
X0136678Y0137673D01*
X0136801Y0136075D02*
X0141052Y0136075D01*
X0141343Y0137800D02*
X0144657Y0137800D01*
X0147000Y0140143D01*
X0147000Y0143457D01*
X0144657Y0145800D01*
X0141343Y0145800D01*
X0139000Y0143457D01*
X0139000Y0140143D01*
X0141343Y0137800D01*
X0139871Y0139272D02*
X0136555Y0139272D01*
X0136432Y0140870D02*
X0139000Y0140870D01*
X0139000Y0142469D02*
X0136309Y0142469D01*
X0136186Y0144068D02*
X0139611Y0144068D01*
X0141209Y0145666D02*
X0136063Y0145666D01*
X0135940Y0147265D02*
X0190623Y0147265D01*
X0188724Y0148863D02*
X0135817Y0148863D01*
X0135694Y0150462D02*
X0188034Y0150462D01*
X0187900Y0152060D02*
X0135571Y0152060D01*
X0135448Y0153659D02*
X0188250Y0153659D01*
X0189245Y0155257D02*
X0135325Y0155257D01*
X0135232Y0156856D02*
X0191610Y0156856D01*
X0189133Y0158454D02*
X0134485Y0158454D01*
X0132087Y0160053D02*
X0188204Y0160053D01*
X0197966Y0150462D02*
X0198050Y0150462D01*
X0198050Y0148863D02*
X0197276Y0148863D01*
X0198050Y0147265D02*
X0195377Y0147265D01*
X0198050Y0145666D02*
X0144791Y0145666D01*
X0146389Y0144068D02*
X0198050Y0144068D01*
X0198050Y0142469D02*
X0147000Y0142469D01*
X0147000Y0140870D02*
X0192358Y0140870D01*
X0191004Y0139272D02*
X0146129Y0139272D01*
X0146546Y0134476D02*
X0190942Y0134476D01*
X0192210Y0132878D02*
X0147400Y0132878D01*
X0147400Y0131279D02*
X0192987Y0131279D01*
X0191173Y0129681D02*
X0147103Y0129681D01*
X0140495Y0128082D02*
X0137416Y0128082D01*
X0137293Y0129681D02*
X0138897Y0129681D01*
X0138600Y0131279D02*
X0137170Y0131279D01*
X0137047Y0132878D02*
X0138600Y0132878D01*
X0139454Y0134476D02*
X0136924Y0134476D01*
X0108384Y0115294D02*
X0094606Y0115294D01*
X0093007Y0113696D02*
X0106856Y0113696D01*
X0106400Y0112097D02*
X0091409Y0112097D01*
X0089810Y0110499D02*
X0106609Y0110499D01*
X0107643Y0108900D02*
X0088357Y0108900D01*
X0086629Y0105703D02*
X0109371Y0105703D01*
X0107048Y0104105D02*
X0088952Y0104105D01*
X0088991Y0104066D02*
X0087866Y0105191D01*
X0086396Y0105800D01*
X0079604Y0105800D01*
X0078134Y0105191D01*
X0077009Y0104066D01*
X0076400Y0102596D01*
X0076400Y0101004D01*
X0077009Y0099534D01*
X0078134Y0098409D01*
X0079604Y0097800D01*
X0086396Y0097800D01*
X0087866Y0098409D01*
X0088991Y0099534D01*
X0089600Y0101004D01*
X0089600Y0102596D01*
X0088991Y0104066D01*
X0089600Y0102506D02*
X0106400Y0102506D01*
X0106440Y0100908D02*
X0089560Y0100908D01*
X0088766Y0099309D02*
X0107234Y0099309D01*
X0105799Y0097711D02*
X0013100Y0097711D01*
X0013100Y0096112D02*
X0104201Y0096112D01*
X0102602Y0094514D02*
X0088543Y0094514D01*
X0089468Y0092915D02*
X0101004Y0092915D01*
X0099405Y0091317D02*
X0089600Y0091317D01*
X0089067Y0089718D02*
X0097807Y0089718D01*
X0102431Y0088120D02*
X0108833Y0088120D01*
X0106933Y0089718D02*
X0104029Y0089718D01*
X0105628Y0091317D02*
X0106400Y0091317D01*
X0117527Y0075332D02*
X0135097Y0075332D01*
X0135423Y0075657D02*
X0134143Y0074377D01*
X0133450Y0072705D01*
X0133450Y0070895D01*
X0134143Y0069223D01*
X0135423Y0067943D01*
X0137095Y0067250D01*
X0138905Y0067250D01*
X0140577Y0067943D01*
X0141857Y0069223D01*
X0142550Y0070895D01*
X0142550Y0072705D01*
X0141857Y0074377D01*
X0140577Y0075657D01*
X0138905Y0076350D01*
X0137095Y0076350D01*
X0135423Y0075657D01*
X0133876Y0073733D02*
X0119129Y0073733D01*
X0119600Y0072134D02*
X0133450Y0072134D01*
X0133599Y0070536D02*
X0119406Y0070536D01*
X0118394Y0068937D02*
X0134428Y0068937D01*
X0136880Y0067339D02*
X0065557Y0067339D01*
X0060443Y0067339D02*
X0045200Y0067339D01*
X0045200Y0068937D02*
X0058665Y0068937D01*
X0058003Y0070536D02*
X0049847Y0070536D01*
X0051446Y0072134D02*
X0057900Y0072134D01*
X0058280Y0073733D02*
X0053044Y0073733D01*
X0054643Y0075332D02*
X0059319Y0075332D01*
X0053216Y0080127D02*
X0011885Y0080127D01*
X0009436Y0081726D02*
X0054814Y0081726D01*
X0056413Y0083324D02*
X0011737Y0083324D01*
X0012743Y0084923D02*
X0058011Y0084923D01*
X0059610Y0086521D02*
X0013100Y0086521D01*
X0012974Y0088120D02*
X0061208Y0088120D01*
X0051617Y0078529D02*
X0039383Y0078529D01*
X0038000Y0076800D02*
X0043000Y0071800D01*
X0040800Y0070536D02*
X0012042Y0070536D01*
X0013084Y0068937D02*
X0040800Y0068937D01*
X0040800Y0067339D02*
X0020503Y0067339D01*
X0020361Y0067481D02*
X0021181Y0066661D01*
X0021181Y0066500D01*
X0026411Y0066500D01*
X0032930Y0059981D01*
X0035361Y0059981D01*
X0036181Y0059161D01*
X0036181Y0054439D01*
X0035361Y0053619D01*
X0030639Y0053619D01*
X0029819Y0054439D01*
X0029819Y0056870D01*
X0024589Y0062100D01*
X0021181Y0062100D01*
X0021181Y0061939D01*
X0020361Y0061119D01*
X0015639Y0061119D01*
X0014819Y0061939D01*
X0014819Y0066661D01*
X0015639Y0067481D01*
X0020361Y0067481D01*
X0018000Y0064300D02*
X0025500Y0064300D01*
X0033000Y0056800D01*
X0036181Y0056149D02*
X0039238Y0056149D01*
X0040800Y0057748D02*
X0036181Y0057748D01*
X0035996Y0059346D02*
X0040800Y0059346D01*
X0040800Y0060945D02*
X0031966Y0060945D01*
X0030368Y0062543D02*
X0040800Y0062543D01*
X0040800Y0064142D02*
X0028769Y0064142D01*
X0027171Y0065740D02*
X0040800Y0065740D01*
X0045200Y0065740D02*
X0059162Y0065740D01*
X0058020Y0064142D02*
X0045200Y0064142D01*
X0045200Y0062543D02*
X0057549Y0062543D01*
X0057567Y0060945D02*
X0045200Y0060945D01*
X0045200Y0059346D02*
X0058077Y0059346D01*
X0059274Y0057748D02*
X0045200Y0057748D01*
X0045200Y0056149D02*
X0060173Y0056149D01*
X0058619Y0054551D02*
X0043862Y0054551D01*
X0042264Y0052952D02*
X0057957Y0052952D01*
X0058000Y0041800D02*
X0083000Y0041800D01*
X0088023Y0038566D02*
X0107977Y0038566D01*
X0106748Y0040164D02*
X0089252Y0040164D01*
X0089600Y0041763D02*
X0106400Y0041763D01*
X0106717Y0043361D02*
X0089283Y0043361D01*
X0088097Y0044960D02*
X0107903Y0044960D01*
X0108743Y0048157D02*
X0087257Y0048157D01*
X0089083Y0049755D02*
X0106917Y0049755D01*
X0106400Y0051354D02*
X0089600Y0051354D01*
X0089452Y0052952D02*
X0106548Y0052952D01*
X0107494Y0054551D02*
X0088506Y0054551D01*
X0083000Y0078529D02*
X0083000Y0078529D01*
X0083000Y0080127D02*
X0083000Y0080127D01*
X0083000Y0081726D02*
X0083000Y0081726D01*
X0076933Y0089718D02*
X0012294Y0089718D01*
X0010423Y0091317D02*
X0076400Y0091317D01*
X0076532Y0092915D02*
X0011328Y0092915D01*
X0012573Y0094514D02*
X0077457Y0094514D01*
X0077234Y0099309D02*
X0012481Y0099309D01*
X0011105Y0100908D02*
X0076440Y0100908D01*
X0076400Y0102506D02*
X0010919Y0102506D01*
X0012404Y0104105D02*
X0077048Y0104105D01*
X0079371Y0105703D02*
X0013066Y0105703D01*
X0008000Y0076800D02*
X0038000Y0076800D01*
X0037956Y0073733D02*
X0012145Y0073733D01*
X0010063Y0072134D02*
X0039554Y0072134D01*
X0042580Y0075332D02*
X0048420Y0075332D01*
X0050019Y0076930D02*
X0040981Y0076930D01*
X0025744Y0060945D02*
X0004800Y0060945D01*
X0004800Y0059346D02*
X0007390Y0059346D01*
X0006500Y0058457D02*
X0006500Y0055143D01*
X0008843Y0052800D01*
X0012157Y0052800D01*
X0014500Y0055143D01*
X0014500Y0058457D01*
X0012157Y0060800D01*
X0008843Y0060800D01*
X0006500Y0058457D01*
X0006500Y0057748D02*
X0004800Y0057748D01*
X0004800Y0056149D02*
X0006500Y0056149D01*
X0007092Y0054551D02*
X0004800Y0054551D01*
X0004800Y0052952D02*
X0008691Y0052952D01*
X0007798Y0049755D02*
X0004800Y0049755D01*
X0004800Y0048157D02*
X0006500Y0048157D01*
X0006500Y0046558D02*
X0004800Y0046558D01*
X0004800Y0044960D02*
X0006683Y0044960D01*
X0008282Y0043361D02*
X0004800Y0043361D01*
X0004800Y0041763D02*
X0019926Y0041763D01*
X0018327Y0043361D02*
X0012718Y0043361D01*
X0010500Y0046800D02*
X0018000Y0046800D01*
X0033000Y0031800D01*
X0029517Y0032172D02*
X0016975Y0032172D01*
X0016486Y0033770D02*
X0027918Y0033770D01*
X0026320Y0035369D02*
X0014771Y0035369D01*
X0011229Y0035369D02*
X0004800Y0035369D01*
X0004800Y0036967D02*
X0024721Y0036967D01*
X0023123Y0038566D02*
X0004800Y0038566D01*
X0004800Y0040164D02*
X0021524Y0040164D01*
X0022951Y0044960D02*
X0029183Y0044960D01*
X0029000Y0046558D02*
X0021353Y0046558D01*
X0019754Y0048157D02*
X0029000Y0048157D01*
X0030298Y0049755D02*
X0013201Y0049755D01*
X0012309Y0052952D02*
X0036041Y0052952D01*
X0036181Y0054551D02*
X0037640Y0054551D01*
X0034443Y0051354D02*
X0004800Y0051354D01*
X0013908Y0054551D02*
X0029819Y0054551D01*
X0029819Y0056149D02*
X0014500Y0056149D01*
X0014500Y0057748D02*
X0028941Y0057748D01*
X0027342Y0059346D02*
X0013610Y0059346D01*
X0014819Y0062543D02*
X0011498Y0062543D01*
X0011583Y0062605D02*
X0012195Y0063217D01*
X0012704Y0063917D01*
X0013097Y0064689D01*
X0013365Y0065512D01*
X0013500Y0066367D01*
X0013500Y0066600D01*
X0008200Y0066600D01*
X0008200Y0061300D01*
X0008433Y0061300D01*
X0009288Y0061435D01*
X0010111Y0061703D01*
X0010883Y0062096D01*
X0011583Y0062605D01*
X0012818Y0064142D02*
X0014819Y0064142D01*
X0014819Y0065740D02*
X0013401Y0065740D01*
X0013483Y0067339D02*
X0015497Y0067339D01*
X0008200Y0065740D02*
X0007800Y0065740D01*
X0007800Y0064142D02*
X0008200Y0064142D01*
X0008200Y0062543D02*
X0007800Y0062543D01*
X0009514Y0033770D02*
X0004800Y0033770D01*
X0004800Y0032172D02*
X0009025Y0032172D01*
X0009206Y0030573D02*
X0004800Y0030573D01*
X0004800Y0028975D02*
X0010204Y0028975D01*
X0004800Y0027376D02*
X0042319Y0027376D01*
X0050911Y0025778D02*
X0004800Y0025778D01*
X0004800Y0024179D02*
X0052510Y0024179D01*
X0054108Y0022581D02*
X0004800Y0022581D01*
X0004800Y0020982D02*
X0055707Y0020982D01*
X0057305Y0019384D02*
X0004800Y0019384D01*
X0004800Y0017785D02*
X0058904Y0017785D01*
X0059000Y0016187D02*
X0004800Y0016187D01*
X0004800Y0014588D02*
X0009618Y0014588D01*
X0009663Y0014650D02*
X0009258Y0014093D01*
X0008946Y0013479D01*
X0008733Y0012824D01*
X0008625Y0012144D01*
X0008625Y0011800D01*
X0013000Y0011800D01*
X0013000Y0011800D01*
X0013000Y0016175D01*
X0013344Y0016175D01*
X0014024Y0016067D01*
X0014679Y0015854D01*
X0015293Y0015542D01*
X0015850Y0015137D01*
X0016337Y0014650D01*
X0016742Y0014093D01*
X0017054Y0013479D01*
X0017267Y0012824D01*
X0017375Y0012144D01*
X0017375Y0011800D01*
X0013000Y0011800D01*
X0013000Y0011800D01*
X0013000Y0011800D01*
X0013000Y0016175D01*
X0012656Y0016175D01*
X0011976Y0016067D01*
X0011321Y0015854D01*
X0010707Y0015542D01*
X0010150Y0015137D01*
X0009663Y0014650D01*
X0008787Y0012990D02*
X0004800Y0012990D01*
X0004800Y0011391D02*
X0008635Y0011391D01*
X0008625Y0011456D02*
X0008733Y0010776D01*
X0008946Y0010121D01*
X0009258Y0009507D01*
X0009663Y0008950D01*
X0010150Y0008463D01*
X0010707Y0008058D01*
X0011321Y0007746D01*
X0011976Y0007533D01*
X0012656Y0007425D01*
X0013000Y0007425D01*
X0013344Y0007425D01*
X0014024Y0007533D01*
X0014679Y0007746D01*
X0015293Y0008058D01*
X0015850Y0008463D01*
X0016337Y0008950D01*
X0016742Y0009507D01*
X0017054Y0010121D01*
X0017267Y0010776D01*
X0017375Y0011456D01*
X0017375Y0011800D01*
X0013000Y0011800D01*
X0013000Y0007425D01*
X0013000Y0011800D01*
X0013000Y0011800D01*
X0008625Y0011800D01*
X0008625Y0011456D01*
X0009113Y0009793D02*
X0004800Y0009793D01*
X0004800Y0008194D02*
X0010520Y0008194D01*
X0013000Y0008194D02*
X0013000Y0008194D01*
X0013000Y0009793D02*
X0013000Y0009793D01*
X0013000Y0011391D02*
X0013000Y0011391D01*
X0013000Y0012990D02*
X0013000Y0012990D01*
X0013000Y0014588D02*
X0013000Y0014588D01*
X0016382Y0014588D02*
X0059555Y0014588D01*
X0061154Y0012990D02*
X0017213Y0012990D01*
X0017365Y0011391D02*
X0076369Y0011391D01*
X0076100Y0009793D02*
X0051230Y0009793D01*
X0052400Y0008194D02*
X0076100Y0008194D01*
X0076982Y0006596D02*
X0052400Y0006596D01*
X0052400Y0004997D02*
X0078580Y0004997D01*
X0083000Y0021800D02*
X0088000Y0021800D01*
X0098000Y0031800D01*
X0088866Y0025778D02*
X0086450Y0025778D01*
X0060997Y0022581D02*
X0060331Y0022581D01*
X0059398Y0024179D02*
X0058732Y0024179D01*
X0058600Y0025778D02*
X0057134Y0025778D01*
X0058600Y0027376D02*
X0055535Y0027376D01*
X0053937Y0028975D02*
X0058952Y0028975D01*
X0048000Y0009793D02*
X0048000Y0009793D01*
X0048000Y0008194D02*
X0048000Y0008194D01*
X0044770Y0009793D02*
X0035664Y0009793D01*
X0037000Y0008194D02*
X0043600Y0008194D01*
X0043600Y0006596D02*
X0037000Y0006596D01*
X0036854Y0004997D02*
X0043600Y0004997D01*
X0030336Y0009793D02*
X0016887Y0009793D01*
X0015480Y0008194D02*
X0029000Y0008194D01*
X0029000Y0006596D02*
X0004800Y0006596D01*
X0004800Y0004997D02*
X0029146Y0004997D01*
X0113000Y0057748D02*
X0113000Y0057748D01*
X0113000Y0059346D02*
X0113000Y0059346D01*
X0113000Y0060945D02*
X0113000Y0060945D01*
X0113000Y0062543D02*
X0113000Y0062543D01*
X0113000Y0064142D02*
X0113000Y0064142D01*
X0113000Y0065740D02*
X0113000Y0065740D01*
X0139120Y0067339D02*
X0145461Y0067339D01*
X0143862Y0068937D02*
X0141572Y0068937D01*
X0142401Y0070536D02*
X0143050Y0070536D01*
X0143050Y0072134D02*
X0142550Y0072134D01*
X0142124Y0073733D02*
X0143050Y0073733D01*
X0144531Y0075332D02*
X0140903Y0075332D01*
X0088383Y0115294D02*
X0087616Y0115294D01*
X0122496Y0166447D02*
X0124000Y0166447D01*
X0124000Y0168045D02*
X0120098Y0168045D01*
X0098750Y0174439D02*
X0157249Y0174439D01*
X0155651Y0176038D02*
X0145349Y0176038D01*
X0145200Y0175889D02*
X0145200Y0175889D01*
X0143000Y0176800D02*
X0153000Y0186800D01*
X0153000Y0181800D01*
X0168000Y0166800D01*
X0158848Y0172841D02*
X0097152Y0172841D01*
X0099781Y0190424D02*
X0100967Y0190424D01*
X0101138Y0196818D02*
X0191789Y0196818D01*
X0188050Y0190424D02*
X0175454Y0190424D01*
X0176878Y0188826D02*
X0186915Y0188826D01*
X0173000Y0188826D02*
X0173000Y0188826D01*
X0173000Y0190424D02*
X0173000Y0190424D01*
X0170546Y0190424D02*
X0154637Y0190424D01*
X0156463Y0188826D02*
X0169122Y0188826D01*
X0168638Y0187227D02*
X0156975Y0187227D01*
X0156817Y0185629D02*
X0168781Y0185629D01*
X0169605Y0184030D02*
X0155852Y0184030D01*
X0155479Y0182432D02*
X0172614Y0182432D01*
X0173000Y0185629D02*
X0173000Y0185629D01*
X0173000Y0187227D02*
X0173000Y0187227D01*
X0154052Y0177636D02*
X0146948Y0177636D01*
X0148546Y0179235D02*
X0152454Y0179235D01*
X0150855Y0180833D02*
X0150145Y0180833D01*
X0004858Y0140870D02*
X0004800Y0140870D01*
D20*
X0058000Y0166800D03*
X0103000Y0166800D03*
X0103000Y0146800D03*
X0103000Y0136800D03*
X0123000Y0151800D03*
X0033000Y0056800D03*
X0018000Y0064300D03*
X0045500Y0029300D03*
X0058000Y0041800D03*
X0098000Y0031800D03*
M02*
