G75*
%MOIN*%
%OFA0B0*%
%FSLAX25Y25*%
%IPPOS*%
%LPD*%
%AMOC8*
5,1,8,0,0,1.08239X$1,22.5*
%
%ADD10C,0.00000*%
%ADD11OC8,0.05200*%
%ADD12C,0.06300*%
%ADD13OC8,0.06300*%
%ADD14C,0.05150*%
%ADD15C,0.11220*%
%ADD16C,0.07400*%
%ADD17C,0.05200*%
%ADD18C,0.05937*%
%ADD19C,0.01600*%
%ADD20R,0.03562X0.03562*%
D10*
X0003000Y0001800D02*
X0003000Y0198650D01*
X0199850Y0198650D01*
X0199850Y0001800D01*
X0003000Y0001800D01*
D11*
X0033000Y0006800D03*
X0048000Y0006800D03*
X0063000Y0016800D03*
X0063000Y0026800D03*
X0080500Y0009300D03*
X0048000Y0046800D03*
X0033000Y0046800D03*
X0010500Y0046800D03*
X0010500Y0056800D03*
X0120500Y0009300D03*
X0133000Y0016800D03*
X0143000Y0016800D03*
X0143000Y0131800D03*
X0143000Y0141800D03*
X0128000Y0166800D03*
X0138000Y0181800D03*
X0138000Y0191800D03*
X0168000Y0166800D03*
X0103000Y0186800D03*
X0098000Y0194300D03*
X0093000Y0186800D03*
X0073000Y0171800D03*
X0063000Y0171800D03*
D12*
X0115500Y0186800D03*
X0138000Y0071800D03*
D13*
X0148000Y0071800D03*
X0125500Y0186800D03*
D14*
X0153000Y0186800D03*
X0173000Y0186800D03*
X0070874Y0191800D03*
X0063000Y0191800D03*
X0055126Y0191800D03*
X0038079Y0183099D03*
X0033354Y0179950D03*
X0038079Y0176800D03*
X0033354Y0173650D03*
X0038079Y0170501D03*
X0013000Y0031800D03*
X0013000Y0011800D03*
D15*
X0018000Y0162430D03*
X0018000Y0191170D03*
D16*
X0008000Y0136800D03*
X0008000Y0126800D03*
X0008000Y0116800D03*
X0008000Y0106800D03*
X0008000Y0096800D03*
X0008000Y0086800D03*
X0008000Y0076800D03*
X0008000Y0066800D03*
X0063000Y0061800D03*
X0063000Y0051800D03*
X0063000Y0071800D03*
X0193000Y0151800D03*
X0193000Y0161800D03*
X0193000Y0171800D03*
X0193000Y0181800D03*
X0193000Y0191800D03*
X0195500Y0136800D03*
X0195500Y0126800D03*
X0195500Y0116800D03*
X0195500Y0106800D03*
X0195500Y0096800D03*
X0195500Y0086800D03*
X0195500Y0076800D03*
X0195500Y0066800D03*
D17*
X0115600Y0061800D02*
X0110400Y0061800D01*
X0110400Y0051800D02*
X0115600Y0051800D01*
X0115600Y0041800D02*
X0110400Y0041800D01*
X0110400Y0031800D02*
X0115600Y0031800D01*
X0115600Y0021800D02*
X0110400Y0021800D01*
X0085600Y0021800D02*
X0080400Y0021800D01*
X0080400Y0031800D02*
X0085600Y0031800D01*
X0085600Y0041800D02*
X0080400Y0041800D01*
X0080400Y0051800D02*
X0085600Y0051800D01*
X0085600Y0061800D02*
X0080400Y0061800D01*
X0080400Y0071800D02*
X0085600Y0071800D01*
X0085600Y0081800D02*
X0080400Y0081800D01*
X0080400Y0091800D02*
X0085600Y0091800D01*
X0085600Y0101800D02*
X0080400Y0101800D01*
X0080400Y0111800D02*
X0085600Y0111800D01*
X0085600Y0121800D02*
X0080400Y0121800D01*
X0080400Y0131800D02*
X0085600Y0131800D01*
X0085600Y0141800D02*
X0080400Y0141800D01*
X0080400Y0151800D02*
X0085600Y0151800D01*
X0110400Y0151800D02*
X0115600Y0151800D01*
X0115600Y0141800D02*
X0110400Y0141800D01*
X0110400Y0131800D02*
X0115600Y0131800D01*
X0115600Y0121800D02*
X0110400Y0121800D01*
X0110400Y0111800D02*
X0115600Y0111800D01*
X0115600Y0101800D02*
X0110400Y0101800D01*
X0110400Y0091800D02*
X0115600Y0091800D01*
X0115600Y0081800D02*
X0110400Y0081800D01*
X0110400Y0071800D02*
X0115600Y0071800D01*
D18*
X0078748Y0191800D03*
X0047252Y0191800D03*
D19*
X0054299Y0183099D02*
X0063000Y0191800D01*
X0063000Y0183926D02*
X0070874Y0191800D01*
X0070874Y0188926D01*
X0078000Y0181800D01*
X0083000Y0186800D01*
X0103000Y0166800D01*
X0098000Y0156800D02*
X0098000Y0106800D01*
X0113000Y0091800D01*
X0113000Y0081800D02*
X0108000Y0081800D01*
X0103000Y0086800D01*
X0103000Y0096800D01*
X0095500Y0104300D01*
X0095500Y0154300D01*
X0090500Y0159300D01*
X0053000Y0159300D01*
X0048000Y0164300D01*
X0048000Y0171800D01*
X0043000Y0176800D01*
X0038079Y0176800D01*
X0033354Y0173650D02*
X0033000Y0173296D01*
X0033000Y0166800D01*
X0043000Y0156800D01*
X0088000Y0156800D01*
X0093000Y0151800D01*
X0093000Y0101800D01*
X0098000Y0096800D01*
X0098000Y0031800D01*
X0098000Y0016800D02*
X0133000Y0016800D01*
X0135500Y0009300D02*
X0143000Y0016800D01*
X0140500Y0021800D02*
X0195500Y0076800D01*
X0195500Y0086800D02*
X0140500Y0031800D01*
X0113000Y0031800D01*
X0113000Y0021800D02*
X0140500Y0021800D01*
X0135500Y0009300D02*
X0120500Y0009300D01*
X0098000Y0016800D02*
X0083000Y0031800D01*
X0068000Y0016800D01*
X0063000Y0016800D01*
X0045500Y0029300D02*
X0033000Y0041800D01*
X0033000Y0046800D01*
X0033000Y0056800D02*
X0045500Y0056800D01*
X0058000Y0044300D01*
X0058000Y0041800D01*
X0063000Y0051800D02*
X0073000Y0051800D01*
X0083000Y0061800D01*
X0083000Y0051800D02*
X0038000Y0006800D01*
X0033000Y0006800D01*
X0013000Y0026800D01*
X0013000Y0031800D01*
X0023000Y0041800D01*
X0023000Y0086800D01*
X0013000Y0096800D01*
X0008000Y0096800D01*
X0008000Y0086800D02*
X0018000Y0081800D01*
X0018000Y0064300D01*
X0010500Y0056800D01*
X0048000Y0091800D02*
X0033000Y0106800D01*
X0008000Y0106800D01*
X0008000Y0116800D02*
X0038000Y0116800D01*
X0053000Y0101800D01*
X0083000Y0101800D01*
X0083000Y0091800D02*
X0048000Y0091800D01*
X0063000Y0071800D02*
X0083000Y0071800D01*
X0113000Y0071800D02*
X0138000Y0071800D01*
X0138000Y0091800D02*
X0170500Y0091800D01*
X0195500Y0116800D01*
X0195500Y0106800D02*
X0140500Y0051800D01*
X0113000Y0051800D01*
X0113000Y0041800D02*
X0140500Y0041800D01*
X0195500Y0096800D01*
X0173000Y0104300D02*
X0195500Y0126800D01*
X0195500Y0136800D02*
X0170500Y0111800D01*
X0138000Y0111800D01*
X0118000Y0131800D01*
X0113000Y0131800D01*
X0113000Y0121800D02*
X0118000Y0121800D01*
X0138000Y0101800D01*
X0168000Y0101800D01*
X0173000Y0104300D01*
X0160500Y0119300D02*
X0193000Y0151800D01*
X0193000Y0161800D02*
X0178000Y0146800D01*
X0163000Y0146800D01*
X0153000Y0136800D01*
X0153000Y0129300D01*
X0148000Y0124300D01*
X0140500Y0124300D01*
X0135500Y0129300D01*
X0135500Y0134300D01*
X0123000Y0146800D01*
X0103000Y0146800D01*
X0103000Y0136800D02*
X0123000Y0136800D01*
X0140500Y0119300D01*
X0160500Y0119300D01*
X0143000Y0141800D02*
X0143000Y0151800D01*
X0128000Y0166800D01*
X0128000Y0171800D01*
X0138000Y0181800D01*
X0193000Y0181800D01*
X0128000Y0174300D02*
X0128000Y0171800D01*
X0128000Y0174300D02*
X0115500Y0186800D01*
X0103000Y0186800D01*
X0095500Y0191800D02*
X0098000Y0194300D01*
X0095500Y0191800D02*
X0088000Y0191800D01*
X0083000Y0186800D01*
X0063000Y0183926D02*
X0063000Y0171800D01*
X0058000Y0166800D02*
X0093000Y0161800D01*
X0098000Y0156800D01*
X0113000Y0151800D02*
X0120500Y0159300D01*
X0123000Y0156800D01*
X0123000Y0151800D01*
X0120500Y0159300D02*
X0128000Y0166800D01*
X0083000Y0141800D02*
X0013000Y0141800D01*
X0008000Y0136800D01*
X0013000Y0131800D02*
X0008000Y0126800D01*
X0013000Y0131800D02*
X0083000Y0131800D01*
X0113000Y0111800D02*
X0118000Y0111800D01*
X0138000Y0091800D01*
X0054299Y0183099D02*
X0038079Y0183099D01*
D20*
X0058000Y0166800D03*
X0103000Y0166800D03*
X0103000Y0146800D03*
X0103000Y0136800D03*
X0123000Y0151800D03*
X0033000Y0056800D03*
X0018000Y0064300D03*
X0045500Y0029300D03*
X0058000Y0041800D03*
X0098000Y0031800D03*
M02*
