%
M48
M72
T01C0.02362
T02C0.03150
T03C0.03200
T04C0.03937
T05C0.04000
T06C0.07480
%
T01
X45500Y29300
X58000Y41800
X33000Y56800
X18000Y64300
X98000Y31800
X103000Y136800
X103000Y146800
X103000Y166800
X123000Y151800
X58000Y166800
T02
X33354Y179950
X38079Y183099
X38079Y176800
X33354Y173650
X38079Y170501
X55126Y191800
X63000Y191800
X70874Y191800
X153000Y186800
X173000Y186800
X13000Y31800
X13000Y11800
T03
X33000Y6800
X48000Y6800
X63000Y16800
X63000Y26800
X80500Y9300
X83000Y21800
X83000Y31800
X83000Y41800
X83000Y51800
X83000Y61800
X83000Y71800
X83000Y81800
X83000Y91800
X83000Y101800
X83000Y111800
X83000Y121800
X83000Y131800
X83000Y141800
X83000Y151800
X73000Y171800
X63000Y171800
X93000Y186800
X98000Y194300
X103000Y186800
X115500Y186800
X125500Y186800
X138000Y181800
X138000Y191800
X128000Y166800
X113000Y151800
X113000Y141800
X113000Y131800
X113000Y121800
X113000Y111800
X113000Y101800
X113000Y91800
X113000Y81800
X113000Y71800
X113000Y61800
X113000Y51800
X113000Y41800
X113000Y31800
X113000Y21800
X120500Y9300
X133000Y16800
X143000Y16800
X138000Y71800
X148000Y71800
X143000Y131800
X143000Y141800
X168000Y166800
X48000Y46800
X33000Y46800
X10500Y46800
X10500Y56800
T04
X47252Y191800
X78748Y191800
T05
X8000Y136800
X8000Y126800
X8000Y116800
X8000Y106800
X8000Y96800
X8000Y86800
X8000Y76800
X8000Y66800
X63000Y61800
X63000Y51800
X63000Y71800
X193000Y151800
X193000Y161800
X193000Y171800
X193000Y181800
X193000Y191800
X195500Y136800
X195500Y126800
X195500Y116800
X195500Y106800
X195500Y96800
X195500Y86800
X195500Y76800
X195500Y66800
T06
X18000Y162430
X18000Y191170
M30
